<mxfile host="app.diagrams.net" modified="2022-01-24T05:37:10.070Z" agent="5.0 (Windows NT 10.0; Win64; x64) AppleWebKit/537.36 (KHTML, like Gecko) Chrome/97.0.4692.71 Safari/537.36" etag="CpoOTmV9D_bArrjy8f3H" version="16.3.0" type="github" pages="8">
  <diagram id="5cbUGCSKlCnuMcElfEXs" name="오브젝트">
    <mxGraphModel dx="801" dy="1458" grid="1" gridSize="10" guides="1" tooltips="1" connect="1" arrows="1" fold="1" page="1" pageScale="1" pageWidth="1169" pageHeight="827" math="0" shadow="0" extFonts="Permanent Marker^https://fonts.googleapis.com/css?family=Permanent+Marker">
      <root>
        <mxCell id="Dn2DAhmlWMs6O1-grngA-0" />
        <mxCell id="Dn2DAhmlWMs6O1-grngA-1" parent="Dn2DAhmlWMs6O1-grngA-0" />
        <mxCell id="Dn2DAhmlWMs6O1-grngA-2" style="edgeStyle=orthogonalEdgeStyle;rounded=0;orthogonalLoop=1;jettySize=auto;html=1;exitX=1;exitY=0.5;exitDx=0;exitDy=0;" parent="Dn2DAhmlWMs6O1-grngA-1" source="Dn2DAhmlWMs6O1-grngA-5" target="Dn2DAhmlWMs6O1-grngA-6" edge="1">
          <mxGeometry relative="1" as="geometry" />
        </mxCell>
        <mxCell id="Dn2DAhmlWMs6O1-grngA-5" value="Contact" style="rounded=0;whiteSpace=wrap;html=1;fillColor=#fff2cc;strokeColor=#d6b656;" parent="Dn2DAhmlWMs6O1-grngA-1" vertex="1">
          <mxGeometry x="200" y="220" width="120" height="40" as="geometry" />
        </mxCell>
        <mxCell id="Dn2DAhmlWMs6O1-grngA-6" value="Account" style="rounded=0;whiteSpace=wrap;html=1;fillColor=#fff2cc;strokeColor=#d6b656;" parent="Dn2DAhmlWMs6O1-grngA-1" vertex="1">
          <mxGeometry x="400" y="220" width="120" height="40" as="geometry" />
        </mxCell>
        <mxCell id="mmnWs50OFU8r1L606YJc-0" value="제품" style="rounded=0;whiteSpace=wrap;html=1;fillColor=#fff2cc;strokeColor=#d6b656;" parent="Dn2DAhmlWMs6O1-grngA-1" vertex="1">
          <mxGeometry x="200" y="754" width="120" height="40" as="geometry" />
        </mxCell>
        <mxCell id="aXdaaqQDrTUBgx7U-XdZ-0" value="고객관리" style="rounded=0;whiteSpace=wrap;html=1;" parent="Dn2DAhmlWMs6O1-grngA-1" vertex="1">
          <mxGeometry x="40" y="191" width="120" height="110" as="geometry" />
        </mxCell>
        <mxCell id="aXdaaqQDrTUBgx7U-XdZ-2" value="수주관리" style="rounded=0;whiteSpace=wrap;html=1;" parent="Dn2DAhmlWMs6O1-grngA-1" vertex="1">
          <mxGeometry x="40" y="333" width="120" height="320" as="geometry" />
        </mxCell>
        <mxCell id="aXdaaqQDrTUBgx7U-XdZ-6" value="" style="endArrow=none;html=1;strokeColor=#FF0000;strokeWidth=4;" parent="Dn2DAhmlWMs6O1-grngA-1" edge="1">
          <mxGeometry width="50" height="50" relative="1" as="geometry">
            <mxPoint x="180" y="1300" as="sourcePoint" />
            <mxPoint x="180" as="targetPoint" />
          </mxGeometry>
        </mxCell>
        <mxCell id="o4f0v6ZFQClhdoKQqsSY-16" style="edgeStyle=orthogonalEdgeStyle;rounded=0;orthogonalLoop=1;jettySize=auto;html=1;exitX=0.75;exitY=1;exitDx=0;exitDy=0;entryX=0.5;entryY=0;entryDx=0;entryDy=0;dashed=1;" parent="Dn2DAhmlWMs6O1-grngA-1" edge="1">
          <mxGeometry relative="1" as="geometry">
            <mxPoint x="830" y="409" as="sourcePoint" />
            <mxPoint x="920" y="469" as="targetPoint" />
          </mxGeometry>
        </mxCell>
        <mxCell id="o4f0v6ZFQClhdoKQqsSY-3" value="제품" style="rounded=0;whiteSpace=wrap;html=1;" parent="Dn2DAhmlWMs6O1-grngA-1" vertex="1">
          <mxGeometry x="40" y="730" width="120" height="104" as="geometry" />
        </mxCell>
        <mxCell id="o4f0v6ZFQClhdoKQqsSY-14" value="Quote 연동" style="ellipse;whiteSpace=wrap;html=1;dashed=1;" parent="Dn2DAhmlWMs6O1-grngA-1" vertex="1">
          <mxGeometry x="700" y="380" width="140" height="44" as="geometry" />
        </mxCell>
        <mxCell id="o4f0v6ZFQClhdoKQqsSY-21" value="Quote 사용여부 체크?" style="text;html=1;strokeColor=#9673a6;fillColor=#e1d5e7;align=center;verticalAlign=middle;whiteSpace=wrap;rounded=0;dashed=1;" parent="Dn2DAhmlWMs6O1-grngA-1" vertex="1">
          <mxGeometry x="990" y="264" width="220" height="50" as="geometry" />
        </mxCell>
        <mxCell id="o4f0v6ZFQClhdoKQqsSY-32" value="직원관리" style="rounded=0;whiteSpace=wrap;html=1;" parent="Dn2DAhmlWMs6O1-grngA-1" vertex="1">
          <mxGeometry x="40" y="854" width="120" height="90" as="geometry" />
        </mxCell>
        <mxCell id="o4f0v6ZFQClhdoKQqsSY-33" value="Resource" style="rounded=0;whiteSpace=wrap;html=1;" parent="Dn2DAhmlWMs6O1-grngA-1" vertex="1">
          <mxGeometry x="200" y="874" width="120" height="40" as="geometry" />
        </mxCell>
        <mxCell id="o4f0v6ZFQClhdoKQqsSY-56" value="Oppty_Product" style="rounded=0;whiteSpace=wrap;html=1;fillColor=#e1d5e7;strokeColor=#9673a6;" parent="Dn2DAhmlWMs6O1-grngA-1" vertex="1">
          <mxGeometry x="550" y="560" width="120" height="40" as="geometry" />
        </mxCell>
        <mxCell id="o4f0v6ZFQClhdoKQqsSY-60" value="Oppty_Res" style="rounded=0;whiteSpace=wrap;html=1;fillColor=#e1d5e7;strokeColor=#9673a6;" parent="Dn2DAhmlWMs6O1-grngA-1" vertex="1">
          <mxGeometry x="700" y="560" width="120" height="40" as="geometry" />
        </mxCell>
        <mxCell id="ziJebEzUFLz45-I4H0Db-0" value="스탠다드&amp;nbsp;" style="rounded=0;whiteSpace=wrap;html=1;fillColor=#fff2cc;strokeColor=#d6b656;" parent="Dn2DAhmlWMs6O1-grngA-1" vertex="1">
          <mxGeometry x="200" y="-60" width="120" height="40" as="geometry" />
        </mxCell>
        <mxCell id="ziJebEzUFLz45-I4H0Db-1" value="사용여부 확인요청" style="rounded=0;whiteSpace=wrap;html=1;fillColor=#e1d5e7;strokeColor=#9673a6;" parent="Dn2DAhmlWMs6O1-grngA-1" vertex="1">
          <mxGeometry x="400" y="-60" width="120" height="40" as="geometry" />
        </mxCell>
        <mxCell id="ziJebEzUFLz45-I4H0Db-2" value="기능" style="ellipse;whiteSpace=wrap;html=1;dashed=1;" parent="Dn2DAhmlWMs6O1-grngA-1" vertex="1">
          <mxGeometry x="590" y="-77.5" width="120" height="75" as="geometry" />
        </mxCell>
        <mxCell id="1La8a9vpFG4dL_agNrkj-6" style="edgeStyle=entityRelationEdgeStyle;rounded=0;orthogonalLoop=1;jettySize=auto;html=1;exitX=1;exitY=0.5;exitDx=0;exitDy=0;entryX=0;entryY=0.5;entryDx=0;entryDy=0;endArrow=classic;endFill=1;" parent="Dn2DAhmlWMs6O1-grngA-1" source="1La8a9vpFG4dL_agNrkj-0" target="1La8a9vpFG4dL_agNrkj-1" edge="1">
          <mxGeometry relative="1" as="geometry" />
        </mxCell>
        <mxCell id="1La8a9vpFG4dL_agNrkj-0" value="Lead" style="rounded=0;whiteSpace=wrap;html=1;fillColor=#fff2cc;strokeColor=#d6b656;" parent="Dn2DAhmlWMs6O1-grngA-1" vertex="1">
          <mxGeometry x="200" y="470" width="120" height="40" as="geometry" />
        </mxCell>
        <mxCell id="1La8a9vpFG4dL_agNrkj-7" style="edgeStyle=entityRelationEdgeStyle;rounded=0;orthogonalLoop=1;jettySize=auto;html=1;exitX=1;exitY=0.5;exitDx=0;exitDy=0;entryX=0;entryY=0.5;entryDx=0;entryDy=0;endArrow=classic;endFill=1;" parent="Dn2DAhmlWMs6O1-grngA-1" source="1La8a9vpFG4dL_agNrkj-1" target="1La8a9vpFG4dL_agNrkj-2" edge="1">
          <mxGeometry relative="1" as="geometry" />
        </mxCell>
        <mxCell id="1La8a9vpFG4dL_agNrkj-1" value="Opporunity" style="rounded=0;whiteSpace=wrap;html=1;fillColor=#fff2cc;strokeColor=#d6b656;" parent="Dn2DAhmlWMs6O1-grngA-1" vertex="1">
          <mxGeometry x="420" y="470" width="120" height="40" as="geometry" />
        </mxCell>
        <mxCell id="1La8a9vpFG4dL_agNrkj-8" style="edgeStyle=entityRelationEdgeStyle;rounded=0;orthogonalLoop=1;jettySize=auto;html=1;exitX=1;exitY=0.75;exitDx=0;exitDy=0;entryX=0;entryY=0.75;entryDx=0;entryDy=0;endArrow=classic;endFill=1;" parent="Dn2DAhmlWMs6O1-grngA-1" edge="1">
          <mxGeometry relative="1" as="geometry">
            <mxPoint x="760" y="494" as="sourcePoint" />
            <mxPoint x="870" y="494" as="targetPoint" />
          </mxGeometry>
        </mxCell>
        <mxCell id="1La8a9vpFG4dL_agNrkj-2" value="Quote" style="rounded=0;whiteSpace=wrap;html=1;fillColor=#fff2cc;strokeColor=#d6b656;" parent="Dn2DAhmlWMs6O1-grngA-1" vertex="1">
          <mxGeometry x="640" y="470" width="120" height="40" as="geometry" />
        </mxCell>
        <mxCell id="1La8a9vpFG4dL_agNrkj-3" value="Contract" style="rounded=0;whiteSpace=wrap;html=1;fillColor=#fff2cc;strokeColor=#d6b656;" parent="Dn2DAhmlWMs6O1-grngA-1" vertex="1">
          <mxGeometry x="870" y="470" width="120" height="40" as="geometry" />
        </mxCell>
        <mxCell id="1La8a9vpFG4dL_agNrkj-5" style="edgeStyle=orthogonalEdgeStyle;rounded=0;orthogonalLoop=1;jettySize=auto;html=1;exitX=0.75;exitY=1;exitDx=0;exitDy=0;entryX=0;entryY=0.5;entryDx=0;entryDy=0;dashed=1;" parent="Dn2DAhmlWMs6O1-grngA-1" edge="1">
          <mxGeometry relative="1" as="geometry">
            <mxPoint x="760" y="484" as="sourcePoint" />
            <mxPoint x="870" y="484" as="targetPoint" />
          </mxGeometry>
        </mxCell>
        <mxCell id="1La8a9vpFG4dL_agNrkj-9" style="edgeStyle=orthogonalEdgeStyle;rounded=0;orthogonalLoop=1;jettySize=auto;html=1;exitX=0.201;exitY=0.93;exitDx=0;exitDy=0;entryX=0.5;entryY=0;entryDx=0;entryDy=0;dashed=1;exitPerimeter=0;" parent="Dn2DAhmlWMs6O1-grngA-1" source="o4f0v6ZFQClhdoKQqsSY-14" edge="1">
          <mxGeometry relative="1" as="geometry">
            <mxPoint x="604" y="412" as="sourcePoint" />
            <mxPoint x="694" y="472" as="targetPoint" />
          </mxGeometry>
        </mxCell>
        <mxCell id="Y69PiVs-mtzasNdWaK12-0" value="&lt;font style=&quot;font-size: 14px&quot;&gt;1. 계약 회차가 늘어나는 것: 동일 oppty 에서 관리?&amp;nbsp;&lt;br&gt;2. Oppty_Product? or Quote_Product?&lt;/font&gt;" style="text;html=1;strokeColor=none;fillColor=none;align=left;verticalAlign=middle;whiteSpace=wrap;rounded=0;" parent="Dn2DAhmlWMs6O1-grngA-1" vertex="1">
          <mxGeometry x="1240" y="470" width="330" height="220" as="geometry" />
        </mxCell>
      </root>
    </mxGraphModel>
  </diagram>
  <diagram id="ym2Il39naAvWMm5VuG8A" name="조직관리">
    <mxGraphModel dx="1422" dy="794" grid="1" gridSize="10" guides="1" tooltips="1" connect="1" arrows="1" fold="1" page="1" pageScale="1" pageWidth="1169" pageHeight="827" math="0" shadow="0">
      <root>
        <mxCell id="0" />
        <mxCell id="1" parent="0" />
        <mxCell id="DX8tyE2UuJnlfDDkB68X-18" value="SF CRM" style="rounded=0;whiteSpace=wrap;html=1;fillColor=#6BFF7A;" parent="1" vertex="1">
          <mxGeometry x="40" y="240" width="80" height="360" as="geometry" />
        </mxCell>
        <mxCell id="DX8tyE2UuJnlfDDkB68X-22" value="" style="edgeStyle=orthogonalEdgeStyle;rounded=0;orthogonalLoop=1;jettySize=auto;html=1;entryX=0;entryY=0.5;entryDx=0;entryDy=0;" parent="1" source="DX8tyE2UuJnlfDDkB68X-19" target="DX8tyE2UuJnlfDDkB68X-31" edge="1">
          <mxGeometry relative="1" as="geometry">
            <mxPoint x="320" y="260" as="targetPoint" />
          </mxGeometry>
        </mxCell>
        <mxCell id="DX8tyE2UuJnlfDDkB68X-19" value="Resource" style="rounded=1;whiteSpace=wrap;html=1;" parent="1" vertex="1">
          <mxGeometry x="160" y="240" width="120" height="40" as="geometry" />
        </mxCell>
        <mxCell id="DX8tyE2UuJnlfDDkB68X-35" value="No" style="edgeStyle=orthogonalEdgeStyle;rounded=0;orthogonalLoop=1;jettySize=auto;html=1;entryX=0;entryY=0.5;entryDx=0;entryDy=0;" parent="1" source="DX8tyE2UuJnlfDDkB68X-31" target="DX8tyE2UuJnlfDDkB68X-36" edge="1">
          <mxGeometry relative="1" as="geometry">
            <mxPoint x="440" y="260" as="targetPoint" />
          </mxGeometry>
        </mxCell>
        <mxCell id="DX8tyE2UuJnlfDDkB68X-40" value="" style="edgeStyle=orthogonalEdgeStyle;rounded=0;orthogonalLoop=1;jettySize=auto;html=1;" parent="1" source="DX8tyE2UuJnlfDDkB68X-31" target="DX8tyE2UuJnlfDDkB68X-39" edge="1">
          <mxGeometry relative="1" as="geometry" />
        </mxCell>
        <mxCell id="DX8tyE2UuJnlfDDkB68X-31" value="정보 변경" style="rhombus;whiteSpace=wrap;html=1;" parent="1" vertex="1">
          <mxGeometry x="360" y="240" width="80" height="40" as="geometry" />
        </mxCell>
        <mxCell id="DX8tyE2UuJnlfDDkB68X-36" value="변동 없음" style="rounded=1;whiteSpace=wrap;html=1;" parent="1" vertex="1">
          <mxGeometry x="760" y="240" width="120" height="40" as="geometry" />
        </mxCell>
        <mxCell id="DX8tyE2UuJnlfDDkB68X-47" value="" style="edgeStyle=orthogonalEdgeStyle;rounded=0;orthogonalLoop=1;jettySize=auto;html=1;entryX=0;entryY=0.5;entryDx=0;entryDy=0;exitX=1;exitY=0.5;exitDx=0;exitDy=0;" parent="1" source="DX8tyE2UuJnlfDDkB68X-39" target="DX8tyE2UuJnlfDDkB68X-45" edge="1">
          <mxGeometry relative="1" as="geometry">
            <Array as="points">
              <mxPoint x="490" y="340" />
              <mxPoint x="490" y="420" />
            </Array>
          </mxGeometry>
        </mxCell>
        <mxCell id="DX8tyE2UuJnlfDDkB68X-48" value="SFDC" style="edgeLabel;html=1;align=center;verticalAlign=middle;resizable=0;points=[];" parent="DX8tyE2UuJnlfDDkB68X-47" vertex="1" connectable="0">
          <mxGeometry x="0.463" y="1" relative="1" as="geometry">
            <mxPoint x="8.329999999999998" y="-9" as="offset" />
          </mxGeometry>
        </mxCell>
        <mxCell id="klHbQj1LCFAfEX6Fm0Rh-1" style="edgeStyle=entityRelationEdgeStyle;rounded=0;orthogonalLoop=1;jettySize=auto;html=1;exitX=1;exitY=0.5;exitDx=0;exitDy=0;entryX=0;entryY=0.5;entryDx=0;entryDy=0;" parent="1" source="DX8tyE2UuJnlfDDkB68X-39" target="DX8tyE2UuJnlfDDkB68X-43" edge="1">
          <mxGeometry relative="1" as="geometry" />
        </mxCell>
        <mxCell id="DX8tyE2UuJnlfDDkB68X-39" value="Level 변경" style="rounded=1;whiteSpace=wrap;html=1;" parent="1" vertex="1">
          <mxGeometry x="340" y="320" width="120" height="40" as="geometry" />
        </mxCell>
        <mxCell id="DX8tyE2UuJnlfDDkB68X-43" value="Level 자동 변경" style="rounded=1;whiteSpace=wrap;html=1;" parent="1" vertex="1">
          <mxGeometry x="560" y="320" width="120" height="40" as="geometry" />
        </mxCell>
        <mxCell id="DX8tyE2UuJnlfDDkB68X-45" value="Level 수동 변경" style="rounded=1;whiteSpace=wrap;html=1;" parent="1" vertex="1">
          <mxGeometry x="560" y="400" width="120" height="40" as="geometry" />
        </mxCell>
        <mxCell id="klHbQj1LCFAfEX6Fm0Rh-2" value="RPA" style="edgeLabel;html=1;align=center;verticalAlign=middle;resizable=0;points=[];" parent="1" vertex="1" connectable="0">
          <mxGeometry x="521.9985714285715" y="335" as="geometry">
            <mxPoint x="-5" y="-3" as="offset" />
          </mxGeometry>
        </mxCell>
        <mxCell id="klHbQj1LCFAfEX6Fm0Rh-3" value="" style="edgeStyle=orthogonalEdgeStyle;rounded=0;orthogonalLoop=1;jettySize=auto;html=1;" parent="1" target="klHbQj1LCFAfEX6Fm0Rh-4" edge="1">
          <mxGeometry relative="1" as="geometry">
            <mxPoint x="400" y="360" as="sourcePoint" />
          </mxGeometry>
        </mxCell>
        <mxCell id="klHbQj1LCFAfEX6Fm0Rh-6" style="edgeStyle=entityRelationEdgeStyle;rounded=0;orthogonalLoop=1;jettySize=auto;html=1;exitX=1;exitY=0.5;exitDx=0;exitDy=0;entryX=0;entryY=0.5;entryDx=0;entryDy=0;" parent="1" source="klHbQj1LCFAfEX6Fm0Rh-4" target="klHbQj1LCFAfEX6Fm0Rh-5" edge="1">
          <mxGeometry relative="1" as="geometry" />
        </mxCell>
        <mxCell id="klHbQj1LCFAfEX6Fm0Rh-4" value="정보 삭제" style="rounded=1;whiteSpace=wrap;html=1;" parent="1" vertex="1">
          <mxGeometry x="340" y="479" width="120" height="40" as="geometry" />
        </mxCell>
        <mxCell id="klHbQj1LCFAfEX6Fm0Rh-5" value="Record 삭제" style="rounded=1;whiteSpace=wrap;html=1;" parent="1" vertex="1">
          <mxGeometry x="760" y="479" width="120" height="40" as="geometry" />
        </mxCell>
      </root>
    </mxGraphModel>
  </diagram>
  <diagram id="_GfFmZ0sKLX0XxT15igA" name="거래처관리">
    <mxGraphModel dx="1422" dy="794" grid="1" gridSize="10" guides="1" tooltips="1" connect="1" arrows="1" fold="1" page="1" pageScale="1" pageWidth="1169" pageHeight="827" math="0" shadow="0">
      <root>
        <mxCell id="B-DzMtp_BD97XHljh_lf-0" />
        <mxCell id="B-DzMtp_BD97XHljh_lf-1" parent="B-DzMtp_BD97XHljh_lf-0" />
        <mxCell id="0HiQR8812q5zInlEJ-Cb-6" value="SF CRM" style="rounded=0;whiteSpace=wrap;html=1;fillColor=#6BFF7A;" parent="B-DzMtp_BD97XHljh_lf-1" vertex="1">
          <mxGeometry x="40" y="240" width="80" height="280" as="geometry" />
        </mxCell>
        <mxCell id="0HiQR8812q5zInlEJ-Cb-7" value="" style="edgeStyle=orthogonalEdgeStyle;rounded=0;orthogonalLoop=1;jettySize=auto;html=1;entryX=0;entryY=0.5;entryDx=0;entryDy=0;" parent="B-DzMtp_BD97XHljh_lf-1" source="0HiQR8812q5zInlEJ-Cb-8" target="0HiQR8812q5zInlEJ-Cb-11" edge="1">
          <mxGeometry relative="1" as="geometry">
            <mxPoint x="320" y="260" as="targetPoint" />
          </mxGeometry>
        </mxCell>
        <mxCell id="0HiQR8812q5zInlEJ-Cb-8" value="Account" style="rounded=1;whiteSpace=wrap;html=1;" parent="B-DzMtp_BD97XHljh_lf-1" vertex="1">
          <mxGeometry x="160" y="240" width="120" height="40" as="geometry" />
        </mxCell>
        <mxCell id="0HiQR8812q5zInlEJ-Cb-9" value="No" style="edgeStyle=orthogonalEdgeStyle;rounded=0;orthogonalLoop=1;jettySize=auto;html=1;entryX=0;entryY=0.5;entryDx=0;entryDy=0;" parent="B-DzMtp_BD97XHljh_lf-1" source="0HiQR8812q5zInlEJ-Cb-11" target="0HiQR8812q5zInlEJ-Cb-12" edge="1">
          <mxGeometry relative="1" as="geometry">
            <mxPoint x="440" y="260" as="targetPoint" />
          </mxGeometry>
        </mxCell>
        <mxCell id="0HiQR8812q5zInlEJ-Cb-10" value="YES" style="edgeStyle=orthogonalEdgeStyle;rounded=0;orthogonalLoop=1;jettySize=auto;html=1;" parent="B-DzMtp_BD97XHljh_lf-1" source="0HiQR8812q5zInlEJ-Cb-11" target="0HiQR8812q5zInlEJ-Cb-17" edge="1">
          <mxGeometry relative="1" as="geometry" />
        </mxCell>
        <mxCell id="0HiQR8812q5zInlEJ-Cb-11" value="중복" style="rhombus;whiteSpace=wrap;html=1;" parent="B-DzMtp_BD97XHljh_lf-1" vertex="1">
          <mxGeometry x="360" y="240" width="80" height="40" as="geometry" />
        </mxCell>
        <mxCell id="0HiQR8812q5zInlEJ-Cb-12" value="신규 생성" style="rounded=1;whiteSpace=wrap;html=1;" parent="B-DzMtp_BD97XHljh_lf-1" vertex="1">
          <mxGeometry x="720" y="240" width="120" height="40" as="geometry" />
        </mxCell>
        <mxCell id="0HiQR8812q5zInlEJ-Cb-14" value="" style="edgeStyle=orthogonalEdgeStyle;rounded=0;orthogonalLoop=1;jettySize=auto;html=1;" parent="B-DzMtp_BD97XHljh_lf-1" source="0HiQR8812q5zInlEJ-Cb-17" target="0HiQR8812q5zInlEJ-Cb-23" edge="1">
          <mxGeometry x="0.2" y="10" relative="1" as="geometry">
            <mxPoint as="offset" />
          </mxGeometry>
        </mxCell>
        <mxCell id="0HiQR8812q5zInlEJ-Cb-17" value="정보 변경" style="rounded=1;whiteSpace=wrap;html=1;" parent="B-DzMtp_BD97XHljh_lf-1" vertex="1">
          <mxGeometry x="340" y="320" width="120" height="40" as="geometry" />
        </mxCell>
        <mxCell id="0HiQR8812q5zInlEJ-Cb-23" value="정보 업데이트" style="rounded=1;whiteSpace=wrap;html=1;" parent="B-DzMtp_BD97XHljh_lf-1" vertex="1">
          <mxGeometry x="720" y="320" width="120" height="40" as="geometry" />
        </mxCell>
      </root>
    </mxGraphModel>
  </diagram>
  <diagram id="gm6KcjMRJgJ2CNg6cL8O" name="고객관리">
    <mxGraphModel dx="1422" dy="794" grid="1" gridSize="10" guides="1" tooltips="1" connect="1" arrows="1" fold="1" page="1" pageScale="1" pageWidth="1169" pageHeight="827" math="0" shadow="0">
      <root>
        <mxCell id="iF9Hna5KATilltA8cpjP-0" />
        <mxCell id="iF9Hna5KATilltA8cpjP-1" parent="iF9Hna5KATilltA8cpjP-0" />
        <mxCell id="QNeUEKl4qTVrYRuwCU0f-6" value="SF CRM" style="rounded=0;whiteSpace=wrap;html=1;fillColor=#6BFF7A;" parent="iF9Hna5KATilltA8cpjP-1" vertex="1">
          <mxGeometry x="40" y="240" width="80" height="360" as="geometry" />
        </mxCell>
        <mxCell id="QNeUEKl4qTVrYRuwCU0f-7" value="" style="edgeStyle=orthogonalEdgeStyle;rounded=0;orthogonalLoop=1;jettySize=auto;html=1;entryX=0;entryY=0.5;entryDx=0;entryDy=0;" parent="iF9Hna5KATilltA8cpjP-1" source="QNeUEKl4qTVrYRuwCU0f-8" target="QNeUEKl4qTVrYRuwCU0f-11" edge="1">
          <mxGeometry relative="1" as="geometry">
            <mxPoint x="320" y="260" as="targetPoint" />
          </mxGeometry>
        </mxCell>
        <mxCell id="QNeUEKl4qTVrYRuwCU0f-8" value="Contact" style="rounded=1;whiteSpace=wrap;html=1;" parent="iF9Hna5KATilltA8cpjP-1" vertex="1">
          <mxGeometry x="160" y="240" width="120" height="40" as="geometry" />
        </mxCell>
        <mxCell id="QNeUEKl4qTVrYRuwCU0f-10" value="YES" style="edgeStyle=orthogonalEdgeStyle;rounded=0;orthogonalLoop=1;jettySize=auto;html=1;" parent="iF9Hna5KATilltA8cpjP-1" source="QNeUEKl4qTVrYRuwCU0f-11" target="QNeUEKl4qTVrYRuwCU0f-14" edge="1">
          <mxGeometry relative="1" as="geometry" />
        </mxCell>
        <mxCell id="ueilc_ZMqi7qFtQlPhFn-3" value="No" style="edgeStyle=orthogonalEdgeStyle;rounded=0;orthogonalLoop=1;jettySize=auto;html=1;" parent="iF9Hna5KATilltA8cpjP-1" source="QNeUEKl4qTVrYRuwCU0f-11" target="ueilc_ZMqi7qFtQlPhFn-2" edge="1">
          <mxGeometry relative="1" as="geometry" />
        </mxCell>
        <mxCell id="QNeUEKl4qTVrYRuwCU0f-11" value="중복" style="rhombus;whiteSpace=wrap;html=1;" parent="iF9Hna5KATilltA8cpjP-1" vertex="1">
          <mxGeometry x="360" y="240" width="80" height="40" as="geometry" />
        </mxCell>
        <mxCell id="ueilc_ZMqi7qFtQlPhFn-1" value="" style="edgeStyle=orthogonalEdgeStyle;rounded=0;orthogonalLoop=1;jettySize=auto;html=1;exitX=1;exitY=0.5;exitDx=0;exitDy=0;" parent="iF9Hna5KATilltA8cpjP-1" source="ueilc_ZMqi7qFtQlPhFn-2" target="ueilc_ZMqi7qFtQlPhFn-0" edge="1">
          <mxGeometry relative="1" as="geometry">
            <mxPoint x="595" y="260" as="sourcePoint" />
          </mxGeometry>
        </mxCell>
        <mxCell id="ueilc_ZMqi7qFtQlPhFn-4" value="Yes" style="edgeLabel;html=1;align=center;verticalAlign=middle;resizable=0;points=[];" parent="ueilc_ZMqi7qFtQlPhFn-1" vertex="1" connectable="0">
          <mxGeometry x="-0.3" relative="1" as="geometry">
            <mxPoint as="offset" />
          </mxGeometry>
        </mxCell>
        <mxCell id="QNeUEKl4qTVrYRuwCU0f-13" value="" style="edgeStyle=orthogonalEdgeStyle;rounded=0;orthogonalLoop=1;jettySize=auto;html=1;" parent="iF9Hna5KATilltA8cpjP-1" source="QNeUEKl4qTVrYRuwCU0f-14" target="QNeUEKl4qTVrYRuwCU0f-15" edge="1">
          <mxGeometry x="0.2" y="10" relative="1" as="geometry">
            <mxPoint as="offset" />
          </mxGeometry>
        </mxCell>
        <mxCell id="QNeUEKl4qTVrYRuwCU0f-14" value="정보 변경" style="rounded=1;whiteSpace=wrap;html=1;" parent="iF9Hna5KATilltA8cpjP-1" vertex="1">
          <mxGeometry x="340" y="400" width="120" height="40" as="geometry" />
        </mxCell>
        <mxCell id="QNeUEKl4qTVrYRuwCU0f-15" value="정보 업데이트" style="rounded=1;whiteSpace=wrap;html=1;" parent="iF9Hna5KATilltA8cpjP-1" vertex="1">
          <mxGeometry x="640" y="400" width="120" height="40" as="geometry" />
        </mxCell>
        <mxCell id="ueilc_ZMqi7qFtQlPhFn-0" value="신규 생성" style="rounded=1;whiteSpace=wrap;html=1;" parent="iF9Hna5KATilltA8cpjP-1" vertex="1">
          <mxGeometry x="660" y="240" width="120" height="40" as="geometry" />
        </mxCell>
        <mxCell id="ueilc_ZMqi7qFtQlPhFn-6" value="No" style="edgeStyle=orthogonalEdgeStyle;rounded=0;orthogonalLoop=1;jettySize=auto;html=1;" parent="iF9Hna5KATilltA8cpjP-1" source="ueilc_ZMqi7qFtQlPhFn-2" target="ueilc_ZMqi7qFtQlPhFn-5" edge="1">
          <mxGeometry relative="1" as="geometry" />
        </mxCell>
        <mxCell id="ueilc_ZMqi7qFtQlPhFn-2" value="거래처 존재여부" style="rhombus;whiteSpace=wrap;html=1;" parent="iF9Hna5KATilltA8cpjP-1" vertex="1">
          <mxGeometry x="500" y="240" width="110" height="40" as="geometry" />
        </mxCell>
        <mxCell id="ueilc_ZMqi7qFtQlPhFn-8" value="" style="edgeStyle=orthogonalEdgeStyle;rounded=0;orthogonalLoop=1;jettySize=auto;html=1;" parent="iF9Hna5KATilltA8cpjP-1" source="ueilc_ZMqi7qFtQlPhFn-5" target="ueilc_ZMqi7qFtQlPhFn-7" edge="1">
          <mxGeometry relative="1" as="geometry" />
        </mxCell>
        <mxCell id="ueilc_ZMqi7qFtQlPhFn-5" value="거래처 등록" style="rounded=1;whiteSpace=wrap;html=1;" parent="iF9Hna5KATilltA8cpjP-1" vertex="1">
          <mxGeometry x="496" y="320" width="120" height="40" as="geometry" />
        </mxCell>
        <mxCell id="ueilc_ZMqi7qFtQlPhFn-7" value="신규생성" style="rounded=1;whiteSpace=wrap;html=1;" parent="iF9Hna5KATilltA8cpjP-1" vertex="1">
          <mxGeometry x="656" y="320" width="120" height="40" as="geometry" />
        </mxCell>
      </root>
    </mxGraphModel>
  </diagram>
  <diagram id="ln6jHGCNwkoofUEvhMxt" name="수주관리">
    <mxGraphModel dx="1422" dy="1621" grid="1" gridSize="10" guides="1" tooltips="1" connect="1" arrows="1" fold="1" page="1" pageScale="1" pageWidth="1169" pageHeight="827" math="0" shadow="0">
      <root>
        <mxCell id="frHtZfIkhyBtscWB0X4U-0" />
        <mxCell id="frHtZfIkhyBtscWB0X4U-1" parent="frHtZfIkhyBtscWB0X4U-0" />
        <mxCell id="FrJB_d1Iz6JXL66-Gfq--10" value="Contract" style="rounded=0;whiteSpace=wrap;html=1;" parent="frHtZfIkhyBtscWB0X4U-1" vertex="1">
          <mxGeometry x="40" y="413" width="120" height="60" as="geometry" />
        </mxCell>
        <mxCell id="ihOjLI34KLW23Rjv4rhY-2" style="edgeStyle=entityRelationEdgeStyle;rounded=0;orthogonalLoop=1;jettySize=auto;html=1;exitX=1;exitY=0.5;exitDx=0;exitDy=0;entryX=0;entryY=0.5;entryDx=0;entryDy=0;" parent="frHtZfIkhyBtscWB0X4U-1" source="FrJB_d1Iz6JXL66-Gfq--11" edge="1">
          <mxGeometry relative="1" as="geometry">
            <mxPoint x="213" y="110" as="targetPoint" />
          </mxGeometry>
        </mxCell>
        <mxCell id="FrJB_d1Iz6JXL66-Gfq--11" value="Oppty 전환" style="rounded=0;whiteSpace=wrap;html=1;" parent="frHtZfIkhyBtscWB0X4U-1" vertex="1">
          <mxGeometry x="40" y="80" width="120" height="60" as="geometry" />
        </mxCell>
        <mxCell id="ihOjLI34KLW23Rjv4rhY-40" style="edgeStyle=entityRelationEdgeStyle;rounded=0;orthogonalLoop=1;jettySize=auto;html=1;entryX=0.01;entryY=0.384;entryDx=0;entryDy=0;entryPerimeter=0;endArrow=classic;endFill=1;" parent="frHtZfIkhyBtscWB0X4U-1" source="FrJB_d1Iz6JXL66-Gfq--13" target="FrJB_d1Iz6JXL66-Gfq--25" edge="1">
          <mxGeometry relative="1" as="geometry" />
        </mxCell>
        <mxCell id="ihOjLI34KLW23Rjv4rhY-41" style="edgeStyle=entityRelationEdgeStyle;rounded=0;orthogonalLoop=1;jettySize=auto;html=1;entryX=0.002;entryY=0.479;entryDx=0;entryDy=0;entryPerimeter=0;endArrow=classic;endFill=1;" parent="frHtZfIkhyBtscWB0X4U-1" source="FrJB_d1Iz6JXL66-Gfq--13" target="FrJB_d1Iz6JXL66-Gfq--23" edge="1">
          <mxGeometry relative="1" as="geometry" />
        </mxCell>
        <mxCell id="FrJB_d1Iz6JXL66-Gfq--13" value="Lead 등록" style="rounded=0;whiteSpace=wrap;html=1;" parent="frHtZfIkhyBtscWB0X4U-1" vertex="1">
          <mxGeometry x="40" y="-83" width="120" height="60" as="geometry" />
        </mxCell>
        <mxCell id="FrJB_d1Iz6JXL66-Gfq--15" value="Quote 등록 및 수정" style="rounded=0;whiteSpace=wrap;html=1;" parent="frHtZfIkhyBtscWB0X4U-1" vertex="1">
          <mxGeometry x="540" y="79.99999999999999" width="120" height="60" as="geometry" />
        </mxCell>
        <mxCell id="ihOjLI34KLW23Rjv4rhY-16" style="edgeStyle=entityRelationEdgeStyle;rounded=0;orthogonalLoop=1;jettySize=auto;html=1;exitX=1;exitY=0.5;exitDx=0;exitDy=0;entryX=0;entryY=0.5;entryDx=0;entryDy=0;" parent="frHtZfIkhyBtscWB0X4U-1" source="FrJB_d1Iz6JXL66-Gfq--18" target="FrJB_d1Iz6JXL66-Gfq--15" edge="1">
          <mxGeometry relative="1" as="geometry" />
        </mxCell>
        <mxCell id="FrJB_d1Iz6JXL66-Gfq--18" value="작년 Contract load" style="rounded=1;whiteSpace=wrap;html=1;" parent="frHtZfIkhyBtscWB0X4U-1" vertex="1">
          <mxGeometry x="352" y="79.99999999999999" width="120" height="60" as="geometry" />
        </mxCell>
        <mxCell id="FrJB_d1Iz6JXL66-Gfq--23" value="SFDC 상세 입력" style="rounded=1;whiteSpace=wrap;html=1;" parent="frHtZfIkhyBtscWB0X4U-1" vertex="1">
          <mxGeometry x="220" y="-30" width="120" height="60" as="geometry" />
        </mxCell>
        <mxCell id="FrJB_d1Iz6JXL66-Gfq--25" value="RPA 상세 입력" style="rounded=1;whiteSpace=wrap;html=1;" parent="frHtZfIkhyBtscWB0X4U-1" vertex="1">
          <mxGeometry x="219" y="-143" width="120" height="60" as="geometry" />
        </mxCell>
        <mxCell id="FrJB_d1Iz6JXL66-Gfq--34" value="Contract 생성" style="rounded=1;whiteSpace=wrap;html=1;" parent="frHtZfIkhyBtscWB0X4U-1" vertex="1">
          <mxGeometry x="553" y="413" width="120" height="60" as="geometry" />
        </mxCell>
        <mxCell id="ihOjLI34KLW23Rjv4rhY-3" style="edgeStyle=entityRelationEdgeStyle;rounded=0;orthogonalLoop=1;jettySize=auto;html=1;entryX=0;entryY=0.5;entryDx=0;entryDy=0;" parent="frHtZfIkhyBtscWB0X4U-1" target="FrJB_d1Iz6JXL66-Gfq--18" edge="1">
          <mxGeometry relative="1" as="geometry">
            <mxPoint x="288" y="109.99999999999999" as="sourcePoint" />
            <mxPoint x="348" y="109.99999999999999" as="targetPoint" />
          </mxGeometry>
        </mxCell>
        <mxCell id="ihOjLI34KLW23Rjv4rhY-1" value="기존/신규" style="rhombus;whiteSpace=wrap;html=1;rounded=1;" parent="frHtZfIkhyBtscWB0X4U-1" vertex="1">
          <mxGeometry x="210" y="69.99999999999999" width="80" height="80" as="geometry" />
        </mxCell>
        <mxCell id="ihOjLI34KLW23Rjv4rhY-12" value="" style="endArrow=none;html=1;entryX=0.5;entryY=1;entryDx=0;entryDy=0;" parent="frHtZfIkhyBtscWB0X4U-1" target="ihOjLI34KLW23Rjv4rhY-1" edge="1">
          <mxGeometry width="50" height="50" relative="1" as="geometry">
            <mxPoint x="250" y="200" as="sourcePoint" />
            <mxPoint x="410" y="270" as="targetPoint" />
          </mxGeometry>
        </mxCell>
        <mxCell id="ihOjLI34KLW23Rjv4rhY-13" value="" style="endArrow=none;html=1;" parent="frHtZfIkhyBtscWB0X4U-1" edge="1">
          <mxGeometry width="50" height="50" relative="1" as="geometry">
            <mxPoint x="250" y="200" as="sourcePoint" />
            <mxPoint x="590" y="200" as="targetPoint" />
          </mxGeometry>
        </mxCell>
        <mxCell id="ihOjLI34KLW23Rjv4rhY-14" value="" style="endArrow=classic;html=1;" parent="frHtZfIkhyBtscWB0X4U-1" edge="1">
          <mxGeometry width="50" height="50" relative="1" as="geometry">
            <mxPoint x="590" y="200" as="sourcePoint" />
            <mxPoint x="590" y="140" as="targetPoint" />
          </mxGeometry>
        </mxCell>
        <mxCell id="ihOjLI34KLW23Rjv4rhY-17" value="신규" style="text;html=1;align=center;verticalAlign=middle;resizable=0;points=[];autosize=1;" parent="frHtZfIkhyBtscWB0X4U-1" vertex="1">
          <mxGeometry x="407" y="197.82999999999998" width="40" height="20" as="geometry" />
        </mxCell>
        <mxCell id="ihOjLI34KLW23Rjv4rhY-18" value="기존" style="text;html=1;align=center;verticalAlign=middle;resizable=0;points=[];autosize=1;" parent="frHtZfIkhyBtscWB0X4U-1" vertex="1">
          <mxGeometry x="293" y="89.99999999999999" width="40" height="20" as="geometry" />
        </mxCell>
        <mxCell id="ihOjLI34KLW23Rjv4rhY-23" value="" style="endArrow=classic;html=1;exitX=0.5;exitY=1;exitDx=0;exitDy=0;" parent="frHtZfIkhyBtscWB0X4U-1" source="FrJB_d1Iz6JXL66-Gfq--13" target="FrJB_d1Iz6JXL66-Gfq--11" edge="1">
          <mxGeometry width="50" height="50" relative="1" as="geometry">
            <mxPoint x="380" y="260" as="sourcePoint" />
            <mxPoint x="430" y="210" as="targetPoint" />
          </mxGeometry>
        </mxCell>
        <mxCell id="ihOjLI34KLW23Rjv4rhY-24" value="" style="endArrow=classic;html=1;exitX=0.5;exitY=1;exitDx=0;exitDy=0;entryX=0.5;entryY=0;entryDx=0;entryDy=0;" parent="frHtZfIkhyBtscWB0X4U-1" source="FrJB_d1Iz6JXL66-Gfq--11" target="FrJB_d1Iz6JXL66-Gfq--10" edge="1">
          <mxGeometry width="50" height="50" relative="1" as="geometry">
            <mxPoint x="99.57999999999988" y="153" as="sourcePoint" />
            <mxPoint x="99.57999999999988" y="263" as="targetPoint" />
          </mxGeometry>
        </mxCell>
        <mxCell id="ihOjLI34KLW23Rjv4rhY-37" style="edgeStyle=entityRelationEdgeStyle;rounded=0;orthogonalLoop=1;jettySize=auto;html=1;exitX=1;exitY=0.5;exitDx=0;exitDy=0;endArrow=classic;endFill=1;" parent="frHtZfIkhyBtscWB0X4U-1" source="ihOjLI34KLW23Rjv4rhY-36" target="FrJB_d1Iz6JXL66-Gfq--34" edge="1">
          <mxGeometry relative="1" as="geometry" />
        </mxCell>
        <mxCell id="ihOjLI34KLW23Rjv4rhY-36" value="Quote load" style="rounded=1;whiteSpace=wrap;html=1;" parent="frHtZfIkhyBtscWB0X4U-1" vertex="1">
          <mxGeometry x="280" y="414" width="120" height="60" as="geometry" />
        </mxCell>
      </root>
    </mxGraphModel>
  </diagram>
  <diagram id="QvDQBlES2pUqQ7T1s2va" name="Process Map">
    <mxGraphModel dx="801" dy="631" grid="1" gridSize="10" guides="1" tooltips="1" connect="1" arrows="1" fold="1" page="1" pageScale="1" pageWidth="827" pageHeight="1169" math="0" shadow="0">
      <root>
        <mxCell id="8DG85VFKqi_O4E5eqye4-0" />
        <mxCell id="8DG85VFKqi_O4E5eqye4-1" parent="8DG85VFKqi_O4E5eqye4-0" />
        <mxCell id="8DG85VFKqi_O4E5eqye4-24" value="" style="rounded=0;whiteSpace=wrap;html=1;strokeColor=#000000;fillColor=none;" parent="8DG85VFKqi_O4E5eqye4-1" vertex="1">
          <mxGeometry x="60" y="130" width="220" height="550" as="geometry" />
        </mxCell>
        <mxCell id="8DG85VFKqi_O4E5eqye4-25" value="" style="rounded=0;whiteSpace=wrap;html=1;strokeColor=#000000;fillColor=none;verticalAlign=middle;" parent="8DG85VFKqi_O4E5eqye4-1" vertex="1">
          <mxGeometry x="320" y="130" width="220" height="550" as="geometry" />
        </mxCell>
        <mxCell id="8DG85VFKqi_O4E5eqye4-2" value="LEAD 발굴 및 육성" style="rounded=1;whiteSpace=wrap;html=1;strokeColor=#000000;fillColor=none;" parent="8DG85VFKqi_O4E5eqye4-1" vertex="1">
          <mxGeometry x="90" y="180" width="120" height="60" as="geometry" />
        </mxCell>
        <mxCell id="8DG85VFKqi_O4E5eqye4-3" value="영업기회 전환" style="rounded=1;whiteSpace=wrap;html=1;strokeColor=#000000;fillColor=none;" parent="8DG85VFKqi_O4E5eqye4-1" vertex="1">
          <mxGeometry x="90" y="350" width="120" height="60" as="geometry" />
        </mxCell>
        <mxCell id="8DG85VFKqi_O4E5eqye4-4" value="직접 영업기회 발굴" style="rounded=1;whiteSpace=wrap;html=1;strokeColor=#000000;fillColor=none;" parent="8DG85VFKqi_O4E5eqye4-1" vertex="1">
          <mxGeometry x="120" y="469" width="120" height="60" as="geometry" />
        </mxCell>
        <mxCell id="8DG85VFKqi_O4E5eqye4-5" value="영업기회 등록/관리" style="rounded=1;whiteSpace=wrap;html=1;strokeColor=#000000;fillColor=none;" parent="8DG85VFKqi_O4E5eqye4-1" vertex="1">
          <mxGeometry x="90" y="580" width="120" height="60" as="geometry" />
        </mxCell>
        <mxCell id="8DG85VFKqi_O4E5eqye4-8" value="" style="endArrow=classic;html=1;exitX=0.5;exitY=1;exitDx=0;exitDy=0;" parent="8DG85VFKqi_O4E5eqye4-1" source="8DG85VFKqi_O4E5eqye4-2" edge="1">
          <mxGeometry width="50" height="50" relative="1" as="geometry">
            <mxPoint x="149.5" y="294" as="sourcePoint" />
            <mxPoint x="149.5" y="350" as="targetPoint" />
          </mxGeometry>
        </mxCell>
        <mxCell id="8DG85VFKqi_O4E5eqye4-10" value="" style="endArrow=classic;html=1;exitX=0.165;exitY=1.001;exitDx=0;exitDy=0;exitPerimeter=0;" parent="8DG85VFKqi_O4E5eqye4-1" source="8DG85VFKqi_O4E5eqye4-3" edge="1">
          <mxGeometry width="50" height="50" relative="1" as="geometry">
            <mxPoint x="110.5" y="470" as="sourcePoint" />
            <mxPoint x="110" y="580" as="targetPoint" />
          </mxGeometry>
        </mxCell>
        <mxCell id="8DG85VFKqi_O4E5eqye4-11" value="" style="endArrow=classic;html=1;" parent="8DG85VFKqi_O4E5eqye4-1" edge="1">
          <mxGeometry width="50" height="50" relative="1" as="geometry">
            <mxPoint x="160" y="530" as="sourcePoint" />
            <mxPoint x="159.5" y="580" as="targetPoint" />
          </mxGeometry>
        </mxCell>
        <mxCell id="8DG85VFKqi_O4E5eqye4-12" value="제안 작성" style="rounded=1;whiteSpace=wrap;html=1;strokeColor=#000000;fillColor=none;" parent="8DG85VFKqi_O4E5eqye4-1" vertex="1">
          <mxGeometry x="369" y="180" width="120" height="60" as="geometry" />
        </mxCell>
        <mxCell id="8DG85VFKqi_O4E5eqye4-13" value="계약/수주 협상" style="rounded=1;whiteSpace=wrap;html=1;strokeColor=#000000;fillColor=none;" parent="8DG85VFKqi_O4E5eqye4-1" vertex="1">
          <mxGeometry x="370" y="341" width="120" height="60" as="geometry" />
        </mxCell>
        <mxCell id="8DG85VFKqi_O4E5eqye4-14" value="계약/수주 확정 및 체결" style="rounded=1;whiteSpace=wrap;html=1;strokeColor=#000000;fillColor=none;" parent="8DG85VFKqi_O4E5eqye4-1" vertex="1">
          <mxGeometry x="360" y="470" width="140" height="60" as="geometry" />
        </mxCell>
        <mxCell id="8DG85VFKqi_O4E5eqye4-15" value="승패 관리" style="rounded=1;whiteSpace=wrap;html=1;strokeColor=#000000;fillColor=none;" parent="8DG85VFKqi_O4E5eqye4-1" vertex="1">
          <mxGeometry x="370" y="590" width="120" height="60" as="geometry" />
        </mxCell>
        <mxCell id="8DG85VFKqi_O4E5eqye4-18" style="edgeStyle=entityRelationEdgeStyle;rounded=0;orthogonalLoop=1;jettySize=auto;html=1;exitX=1;exitY=0.5;exitDx=0;exitDy=0;entryX=0;entryY=0.5;entryDx=0;entryDy=0;endArrow=classic;endFill=1;startArrow=classic;startFill=1;" parent="8DG85VFKqi_O4E5eqye4-1" source="8DG85VFKqi_O4E5eqye4-16" target="8DG85VFKqi_O4E5eqye4-17" edge="1">
          <mxGeometry relative="1" as="geometry" />
        </mxCell>
        <mxCell id="8DG85VFKqi_O4E5eqye4-16" value="&amp;nbsp;Account 정보관리" style="rounded=1;whiteSpace=wrap;html=1;strokeColor=#000000;fillColor=none;" parent="8DG85VFKqi_O4E5eqye4-1" vertex="1">
          <mxGeometry x="90" y="830" width="120" height="60" as="geometry" />
        </mxCell>
        <mxCell id="8DG85VFKqi_O4E5eqye4-17" value="Contact 정보관리" style="rounded=1;whiteSpace=wrap;html=1;strokeColor=#000000;fillColor=none;" parent="8DG85VFKqi_O4E5eqye4-1" vertex="1">
          <mxGeometry x="380" y="830" width="120" height="60" as="geometry" />
        </mxCell>
        <mxCell id="8DG85VFKqi_O4E5eqye4-20" value="" style="endArrow=classic;html=1;exitX=0.5;exitY=1;exitDx=0;exitDy=0;" parent="8DG85VFKqi_O4E5eqye4-1" edge="1">
          <mxGeometry width="50" height="50" relative="1" as="geometry">
            <mxPoint x="429.67" y="240" as="sourcePoint" />
            <mxPoint x="429" y="340" as="targetPoint" />
          </mxGeometry>
        </mxCell>
        <mxCell id="8DG85VFKqi_O4E5eqye4-21" value="" style="endArrow=classic;html=1;exitX=0.5;exitY=1;exitDx=0;exitDy=0;" parent="8DG85VFKqi_O4E5eqye4-1" source="8DG85VFKqi_O4E5eqye4-13" edge="1">
          <mxGeometry width="50" height="50" relative="1" as="geometry">
            <mxPoint x="429" y="410" as="sourcePoint" />
            <mxPoint x="429.4100000000002" y="470" as="targetPoint" />
          </mxGeometry>
        </mxCell>
        <mxCell id="8DG85VFKqi_O4E5eqye4-22" value="" style="endArrow=classic;html=1;" parent="8DG85VFKqi_O4E5eqye4-1" edge="1">
          <mxGeometry width="50" height="50" relative="1" as="geometry">
            <mxPoint x="429" y="530" as="sourcePoint" />
            <mxPoint x="429.4100000000002" y="590" as="targetPoint" />
          </mxGeometry>
        </mxCell>
        <mxCell id="8DG85VFKqi_O4E5eqye4-26" value="" style="rounded=0;whiteSpace=wrap;html=1;strokeColor=#000000;fillColor=none;" parent="8DG85VFKqi_O4E5eqye4-1" vertex="1">
          <mxGeometry x="60" y="810" width="900" height="230" as="geometry" />
        </mxCell>
        <mxCell id="8DG85VFKqi_O4E5eqye4-27" value="" style="rounded=0;whiteSpace=wrap;html=1;strokeColor=#000000;fillColor=#000000;" parent="8DG85VFKqi_O4E5eqye4-1" vertex="1">
          <mxGeometry x="60" y="90" width="220" height="40" as="geometry" />
        </mxCell>
        <mxCell id="8DG85VFKqi_O4E5eqye4-28" value="" style="rounded=0;whiteSpace=wrap;html=1;strokeColor=#000000;fillColor=#000000;" parent="8DG85VFKqi_O4E5eqye4-1" vertex="1">
          <mxGeometry x="320" y="90" width="220" height="40" as="geometry" />
        </mxCell>
        <mxCell id="8DG85VFKqi_O4E5eqye4-29" value="" style="rounded=0;whiteSpace=wrap;html=1;strokeColor=#000000;fillColor=#000000;" parent="8DG85VFKqi_O4E5eqye4-1" vertex="1">
          <mxGeometry x="60" y="770" width="220" height="40" as="geometry" />
        </mxCell>
        <mxCell id="8DG85VFKqi_O4E5eqye4-30" value="&lt;font color=&quot;#ffffff&quot; style=&quot;font-size: 20px&quot;&gt;기회&lt;/font&gt;" style="text;html=1;strokeColor=none;fillColor=none;align=center;verticalAlign=middle;whiteSpace=wrap;rounded=0;fontStyle=1" parent="8DG85VFKqi_O4E5eqye4-1" vertex="1">
          <mxGeometry x="140" y="100" width="60" height="20" as="geometry" />
        </mxCell>
        <mxCell id="8DG85VFKqi_O4E5eqye4-31" value="&lt;font color=&quot;#ffffff&quot; style=&quot;font-size: 20px&quot;&gt;제안/수주&lt;/font&gt;" style="text;html=1;strokeColor=none;fillColor=none;align=center;verticalAlign=middle;whiteSpace=wrap;rounded=0;fontStyle=1" parent="8DG85VFKqi_O4E5eqye4-1" vertex="1">
          <mxGeometry x="380" y="100" width="100" height="20" as="geometry" />
        </mxCell>
        <mxCell id="8DG85VFKqi_O4E5eqye4-32" value="&lt;font color=&quot;#ffffff&quot; style=&quot;font-size: 20px&quot;&gt;기준정보 관리&lt;/font&gt;" style="text;html=1;strokeColor=none;fillColor=none;align=center;verticalAlign=middle;whiteSpace=wrap;rounded=0;fontStyle=1" parent="8DG85VFKqi_O4E5eqye4-1" vertex="1">
          <mxGeometry x="105" y="780" width="130" height="20" as="geometry" />
        </mxCell>
        <mxCell id="HneMlMfvsa3yv3rZwzFV-0" value="Resource 관리" style="rounded=1;whiteSpace=wrap;html=1;" parent="8DG85VFKqi_O4E5eqye4-1" vertex="1">
          <mxGeometry x="90" y="950" width="120" height="60" as="geometry" />
        </mxCell>
        <mxCell id="8lN7onnuIe1AL27uKhCG-0" value="" style="curved=1;endArrow=classic;html=1;rounded=0;exitX=1;exitY=0.5;exitDx=0;exitDy=0;entryX=0;entryY=0.5;entryDx=0;entryDy=0;" parent="8DG85VFKqi_O4E5eqye4-1" source="8DG85VFKqi_O4E5eqye4-5" target="8DG85VFKqi_O4E5eqye4-12" edge="1">
          <mxGeometry width="50" height="50" relative="1" as="geometry">
            <mxPoint x="220" y="630" as="sourcePoint" />
            <mxPoint x="270" y="580" as="targetPoint" />
            <Array as="points">
              <mxPoint x="310" y="610" />
              <mxPoint x="290" y="200" />
            </Array>
          </mxGeometry>
        </mxCell>
      </root>
    </mxGraphModel>
  </diagram>
  <diagram id="-nVOaDVWTtgM9SvS3mIm" name="견적서_process">
    <mxGraphModel dx="2378" dy="2120" grid="1" gridSize="10" guides="1" tooltips="1" connect="0" arrows="0" fold="1" page="1" pageScale="1" pageWidth="850" pageHeight="1100" math="0" shadow="0">
      <root>
        <mxCell id="KY7hcWVkb_oylUFNRITa-0" />
        <mxCell id="KY7hcWVkb_oylUFNRITa-1" parent="KY7hcWVkb_oylUFNRITa-0" />
        <mxCell id="DUfzWWpAgFExAqKAmbWk-51" value="" style="rounded=0;whiteSpace=wrap;html=1;fillColor=#eeeeee;strokeColor=#36393d;" vertex="1" parent="KY7hcWVkb_oylUFNRITa-1">
          <mxGeometry x="970" y="691" width="290" height="100" as="geometry" />
        </mxCell>
        <mxCell id="DUfzWWpAgFExAqKAmbWk-52" value="Contract 등록" style="rounded=0;whiteSpace=wrap;html=1;labelBackgroundColor=none;fillColor=#000000;fontColor=#FFFFFF;strokeColor=none;" vertex="1" parent="KY7hcWVkb_oylUFNRITa-1">
          <mxGeometry x="1141" y="670" width="120" height="21" as="geometry" />
        </mxCell>
        <mxCell id="DUfzWWpAgFExAqKAmbWk-46" value="" style="rounded=0;whiteSpace=wrap;html=1;fillColor=#eeeeee;strokeColor=#36393d;" vertex="1" parent="KY7hcWVkb_oylUFNRITa-1">
          <mxGeometry x="1088" y="11" width="290" height="127" as="geometry" />
        </mxCell>
        <mxCell id="DUfzWWpAgFExAqKAmbWk-47" value="Product List view" style="rounded=0;whiteSpace=wrap;html=1;labelBackgroundColor=none;fillColor=#000000;fontColor=#FFFFFF;strokeColor=none;" vertex="1" parent="KY7hcWVkb_oylUFNRITa-1">
          <mxGeometry x="1087" y="-10" width="120" height="21" as="geometry" />
        </mxCell>
        <mxCell id="DUfzWWpAgFExAqKAmbWk-48" value="Product Detail" style="rounded=0;whiteSpace=wrap;html=1;labelBackgroundColor=none;fillColor=#000000;fontColor=#FFFFFF;strokeColor=#FFFFFF;" vertex="1" parent="KY7hcWVkb_oylUFNRITa-1">
          <mxGeometry x="1087" y="-31" width="120" height="21" as="geometry" />
        </mxCell>
        <mxCell id="DUfzWWpAgFExAqKAmbWk-49" value="New Product" style="rounded=0;whiteSpace=wrap;html=1;labelBackgroundColor=none;fillColor=#000000;fontColor=#FFFFFF;strokeColor=#FFFFFF;" vertex="1" parent="KY7hcWVkb_oylUFNRITa-1">
          <mxGeometry x="1087" y="-52" width="120" height="21" as="geometry" />
        </mxCell>
        <mxCell id="DUfzWWpAgFExAqKAmbWk-43" value="" style="rounded=0;whiteSpace=wrap;html=1;fillColor=#eeeeee;strokeColor=#36393d;" vertex="1" parent="KY7hcWVkb_oylUFNRITa-1">
          <mxGeometry x="510" y="691" width="420" height="100" as="geometry" />
        </mxCell>
        <mxCell id="DUfzWWpAgFExAqKAmbWk-44" value="Email Quote" style="rounded=0;whiteSpace=wrap;html=1;labelBackgroundColor=none;fillColor=#000000;fontColor=#FFFFFF;" vertex="1" parent="KY7hcWVkb_oylUFNRITa-1">
          <mxGeometry x="510" y="670" width="120" height="21" as="geometry" />
        </mxCell>
        <mxCell id="DUfzWWpAgFExAqKAmbWk-37" value="" style="rounded=0;whiteSpace=wrap;html=1;fillColor=#eeeeee;strokeColor=#36393d;" vertex="1" parent="KY7hcWVkb_oylUFNRITa-1">
          <mxGeometry x="470" y="278.5" width="290" height="155.5" as="geometry" />
        </mxCell>
        <mxCell id="DUfzWWpAgFExAqKAmbWk-35" value="" style="rounded=0;whiteSpace=wrap;html=1;fillColor=#eeeeee;strokeColor=#36393d;" vertex="1" parent="KY7hcWVkb_oylUFNRITa-1">
          <mxGeometry x="225" y="300.5" width="235" height="100" as="geometry" />
        </mxCell>
        <mxCell id="DUfzWWpAgFExAqKAmbWk-36" value="Quote Line Item 등록" style="rounded=0;whiteSpace=wrap;html=1;labelBackgroundColor=none;fillColor=#000000;fontColor=#FFFFFF;strokeColor=none;" vertex="1" parent="KY7hcWVkb_oylUFNRITa-1">
          <mxGeometry x="225" y="280" width="120" height="21" as="geometry" />
        </mxCell>
        <mxCell id="DUfzWWpAgFExAqKAmbWk-33" value="" style="rounded=0;whiteSpace=wrap;html=1;fillColor=#eeeeee;strokeColor=#36393d;" vertex="1" parent="KY7hcWVkb_oylUFNRITa-1">
          <mxGeometry x="290" y="163.5" width="290" height="100" as="geometry" />
        </mxCell>
        <mxCell id="DUfzWWpAgFExAqKAmbWk-34" value="Quote 등록" style="rounded=0;whiteSpace=wrap;html=1;labelBackgroundColor=none;fillColor=#000000;fontColor=#FFFFFF;" vertex="1" parent="KY7hcWVkb_oylUFNRITa-1">
          <mxGeometry x="460" y="142.5" width="120" height="21" as="geometry" />
        </mxCell>
        <mxCell id="DUfzWWpAgFExAqKAmbWk-31" value="" style="rounded=0;whiteSpace=wrap;html=1;fillColor=#eeeeee;strokeColor=#36393d;" vertex="1" parent="KY7hcWVkb_oylUFNRITa-1">
          <mxGeometry x="-50" y="31" width="480" height="100" as="geometry" />
        </mxCell>
        <mxCell id="DUfzWWpAgFExAqKAmbWk-29" value="" style="rounded=0;whiteSpace=wrap;html=1;fillColor=#eeeeee;strokeColor=#36393d;" vertex="1" parent="KY7hcWVkb_oylUFNRITa-1">
          <mxGeometry x="-50" y="-100" width="290" height="100" as="geometry" />
        </mxCell>
        <mxCell id="DUfzWWpAgFExAqKAmbWk-30" value="Oppty 등록" style="rounded=0;whiteSpace=wrap;html=1;labelBackgroundColor=none;fillColor=#000000;fontColor=#FFFFFF;" vertex="1" parent="KY7hcWVkb_oylUFNRITa-1">
          <mxGeometry x="-50" y="-121" width="120" height="21" as="geometry" />
        </mxCell>
        <mxCell id="DUfzWWpAgFExAqKAmbWk-27" value="" style="rounded=0;whiteSpace=wrap;html=1;fillColor=#eeeeee;strokeColor=#36393d;" vertex="1" parent="KY7hcWVkb_oylUFNRITa-1">
          <mxGeometry x="-50" y="-244" width="290" height="100" as="geometry" />
        </mxCell>
        <mxCell id="DUfzWWpAgFExAqKAmbWk-28" value="Oppty 전환" style="rounded=0;whiteSpace=wrap;html=1;labelBackgroundColor=none;fillColor=#000000;fontColor=#FFFFFF;" vertex="1" parent="KY7hcWVkb_oylUFNRITa-1">
          <mxGeometry x="-50" y="-265" width="120" height="21" as="geometry" />
        </mxCell>
        <mxCell id="DUfzWWpAgFExAqKAmbWk-25" value="" style="rounded=0;whiteSpace=wrap;html=1;fillColor=#eeeeee;strokeColor=#36393d;" vertex="1" parent="KY7hcWVkb_oylUFNRITa-1">
          <mxGeometry x="-50" y="-369" width="290" height="80" as="geometry" />
        </mxCell>
        <mxCell id="KY7hcWVkb_oylUFNRITa-2" value="기존 견적서 존재?" style="rhombus;whiteSpace=wrap;html=1;" parent="KY7hcWVkb_oylUFNRITa-1" vertex="1">
          <mxGeometry x="90" y="180" width="120" height="60" as="geometry" />
        </mxCell>
        <mxCell id="KY7hcWVkb_oylUFNRITa-3" value="기존 견적서 &lt;br&gt;불러오기" style="rounded=1;whiteSpace=wrap;html=1;" parent="KY7hcWVkb_oylUFNRITa-1" vertex="1">
          <mxGeometry x="90" y="310" width="120" height="60" as="geometry" />
        </mxCell>
        <mxCell id="KY7hcWVkb_oylUFNRITa-4" value="제안할 내용과 비교" style="rhombus;whiteSpace=wrap;html=1;" parent="KY7hcWVkb_oylUFNRITa-1" vertex="1">
          <mxGeometry x="90" y="440" width="120" height="60" as="geometry" />
        </mxCell>
        <mxCell id="KY7hcWVkb_oylUFNRITa-5" value="변동내용 수정:&lt;br&gt;1) 기간 &lt;br&gt;2) Product/Resource&lt;br&gt;3) 가격" style="rounded=1;whiteSpace=wrap;html=1;" parent="KY7hcWVkb_oylUFNRITa-1" vertex="1">
          <mxGeometry x="75" y="570" width="150" height="80" as="geometry" />
        </mxCell>
        <mxCell id="KY7hcWVkb_oylUFNRITa-6" value="최종 가격 계산" style="rounded=1;whiteSpace=wrap;html=1;" parent="KY7hcWVkb_oylUFNRITa-1" vertex="1">
          <mxGeometry x="320" y="710" width="120" height="60" as="geometry" />
        </mxCell>
        <mxCell id="KY7hcWVkb_oylUFNRITa-7" value="견적서 받을 담당자 지정" style="rounded=1;whiteSpace=wrap;html=1;" parent="KY7hcWVkb_oylUFNRITa-1" vertex="1">
          <mxGeometry x="540" y="710" width="140" height="60" as="geometry" />
        </mxCell>
        <mxCell id="VFuvFAlaSrYjV7-92XhT-5" style="edgeStyle=orthogonalEdgeStyle;rounded=0;orthogonalLoop=1;jettySize=auto;html=1;exitX=1;exitY=0.5;exitDx=0;exitDy=0;" parent="KY7hcWVkb_oylUFNRITa-1" source="KY7hcWVkb_oylUFNRITa-8" edge="1">
          <mxGeometry relative="1" as="geometry">
            <mxPoint x="1000" y="740" as="targetPoint" />
          </mxGeometry>
        </mxCell>
        <mxCell id="KY7hcWVkb_oylUFNRITa-8" value="견적서 발송" style="rounded=1;whiteSpace=wrap;html=1;" parent="KY7hcWVkb_oylUFNRITa-1" vertex="1">
          <mxGeometry x="780" y="710" width="120" height="60" as="geometry" />
        </mxCell>
        <mxCell id="KY7hcWVkb_oylUFNRITa-9" value="" style="endArrow=classic;html=1;rounded=0;entryX=0.5;entryY=0;entryDx=0;entryDy=0;exitX=0.5;exitY=1;exitDx=0;exitDy=0;" parent="KY7hcWVkb_oylUFNRITa-1" source="KY7hcWVkb_oylUFNRITa-2" target="KY7hcWVkb_oylUFNRITa-3" edge="1">
          <mxGeometry width="50" height="50" relative="1" as="geometry">
            <mxPoint x="200" y="270" as="sourcePoint" />
            <mxPoint x="250" y="220" as="targetPoint" />
          </mxGeometry>
        </mxCell>
        <mxCell id="KY7hcWVkb_oylUFNRITa-10" value="" style="endArrow=classic;html=1;rounded=0;entryX=0.5;entryY=0;entryDx=0;entryDy=0;exitX=0.5;exitY=1;exitDx=0;exitDy=0;" parent="KY7hcWVkb_oylUFNRITa-1" edge="1">
          <mxGeometry width="50" height="50" relative="1" as="geometry">
            <mxPoint x="149.5" y="370" as="sourcePoint" />
            <mxPoint x="149.5" y="440" as="targetPoint" />
          </mxGeometry>
        </mxCell>
        <mxCell id="KY7hcWVkb_oylUFNRITa-11" value="" style="endArrow=classic;html=1;rounded=0;entryX=0.5;entryY=0;entryDx=0;entryDy=0;exitX=0.5;exitY=1;exitDx=0;exitDy=0;" parent="KY7hcWVkb_oylUFNRITa-1" edge="1">
          <mxGeometry width="50" height="50" relative="1" as="geometry">
            <mxPoint x="149.5" y="500" as="sourcePoint" />
            <mxPoint x="149.5" y="570" as="targetPoint" />
          </mxGeometry>
        </mxCell>
        <mxCell id="KY7hcWVkb_oylUFNRITa-12" value="" style="endArrow=classic;html=1;rounded=0;exitX=0.5;exitY=1;exitDx=0;exitDy=0;entryX=0;entryY=0.5;entryDx=0;entryDy=0;" parent="KY7hcWVkb_oylUFNRITa-1" edge="1" target="KY7hcWVkb_oylUFNRITa-6">
          <mxGeometry width="50" height="50" relative="1" as="geometry">
            <mxPoint x="149.5" y="650" as="sourcePoint" />
            <mxPoint x="150" y="710" as="targetPoint" />
            <Array as="points">
              <mxPoint x="150" y="740" />
            </Array>
          </mxGeometry>
        </mxCell>
        <mxCell id="KY7hcWVkb_oylUFNRITa-13" value="" style="endArrow=classic;html=1;rounded=0;" parent="KY7hcWVkb_oylUFNRITa-1" edge="1">
          <mxGeometry width="50" height="50" relative="1" as="geometry">
            <mxPoint x="210" y="470" as="sourcePoint" />
            <mxPoint x="380" y="710" as="targetPoint" />
            <Array as="points">
              <mxPoint x="380" y="470" />
            </Array>
          </mxGeometry>
        </mxCell>
        <mxCell id="KY7hcWVkb_oylUFNRITa-14" value="" style="endArrow=classic;html=1;rounded=0;entryX=0;entryY=0.5;entryDx=0;entryDy=0;" parent="KY7hcWVkb_oylUFNRITa-1" target="KY7hcWVkb_oylUFNRITa-7" edge="1">
          <mxGeometry width="50" height="50" relative="1" as="geometry">
            <mxPoint x="440" y="740" as="sourcePoint" />
            <mxPoint x="490" y="690" as="targetPoint" />
          </mxGeometry>
        </mxCell>
        <mxCell id="KY7hcWVkb_oylUFNRITa-15" value="" style="endArrow=classic;html=1;rounded=0;entryX=0;entryY=0.5;entryDx=0;entryDy=0;" parent="KY7hcWVkb_oylUFNRITa-1" edge="1">
          <mxGeometry width="50" height="50" relative="1" as="geometry">
            <mxPoint x="680" y="739.5" as="sourcePoint" />
            <mxPoint x="780" y="739.5" as="targetPoint" />
          </mxGeometry>
        </mxCell>
        <mxCell id="KY7hcWVkb_oylUFNRITa-16" value="" style="endArrow=classic;html=1;rounded=0;entryX=0;entryY=0.5;entryDx=0;entryDy=0;" parent="KY7hcWVkb_oylUFNRITa-1" target="KY7hcWVkb_oylUFNRITa-17" edge="1">
          <mxGeometry width="50" height="50" relative="1" as="geometry">
            <mxPoint x="210" y="209.5" as="sourcePoint" />
            <mxPoint x="310" y="209.5" as="targetPoint" />
          </mxGeometry>
        </mxCell>
        <mxCell id="KY7hcWVkb_oylUFNRITa-17" value="새 견적서 작성" style="rounded=1;whiteSpace=wrap;html=1;" parent="KY7hcWVkb_oylUFNRITa-1" vertex="1">
          <mxGeometry x="320" y="180" width="120" height="60" as="geometry" />
        </mxCell>
        <mxCell id="KY7hcWVkb_oylUFNRITa-19" value="" style="endArrow=classic;html=1;rounded=0;entryX=0.5;entryY=0;entryDx=0;entryDy=0;exitX=0.5;exitY=1;exitDx=0;exitDy=0;" parent="KY7hcWVkb_oylUFNRITa-1" edge="1">
          <mxGeometry width="50" height="50" relative="1" as="geometry">
            <mxPoint x="379.5" y="240" as="sourcePoint" />
            <mxPoint x="379.5" y="310" as="targetPoint" />
          </mxGeometry>
        </mxCell>
        <mxCell id="KY7hcWVkb_oylUFNRITa-20" value="" style="endArrow=classic;html=1;rounded=0;exitX=0.5;exitY=1;exitDx=0;exitDy=0;entryX=0.5;entryY=0;entryDx=0;entryDy=0;" parent="KY7hcWVkb_oylUFNRITa-1" target="KY7hcWVkb_oylUFNRITa-6" edge="1">
          <mxGeometry width="50" height="50" relative="1" as="geometry">
            <mxPoint x="379.5" y="240" as="sourcePoint" />
            <mxPoint x="380" y="700" as="targetPoint" />
          </mxGeometry>
        </mxCell>
        <mxCell id="KY7hcWVkb_oylUFNRITa-18" value="1) 기간&lt;br&gt;2) Product / Resource&lt;br&gt;3) 가격&lt;br&gt;입력" style="rounded=1;whiteSpace=wrap;html=1;" parent="KY7hcWVkb_oylUFNRITa-1" vertex="1">
          <mxGeometry x="310" y="310" width="140" height="80" as="geometry" />
        </mxCell>
        <mxCell id="KY7hcWVkb_oylUFNRITa-21" value="No" style="text;html=1;strokeColor=none;fillColor=none;align=center;verticalAlign=middle;whiteSpace=wrap;rounded=0;" parent="KY7hcWVkb_oylUFNRITa-1" vertex="1">
          <mxGeometry x="230" y="188" width="60" height="30" as="geometry" />
        </mxCell>
        <mxCell id="KY7hcWVkb_oylUFNRITa-22" value="Yes" style="text;html=1;strokeColor=none;fillColor=none;align=center;verticalAlign=middle;whiteSpace=wrap;rounded=0;" parent="KY7hcWVkb_oylUFNRITa-1" vertex="1">
          <mxGeometry x="107" y="260" width="60" height="30" as="geometry" />
        </mxCell>
        <mxCell id="KY7hcWVkb_oylUFNRITa-24" value="변경 No?" style="text;html=1;strokeColor=none;fillColor=none;align=center;verticalAlign=middle;whiteSpace=wrap;rounded=0;" parent="KY7hcWVkb_oylUFNRITa-1" vertex="1">
          <mxGeometry x="260" y="446" width="60" height="30" as="geometry" />
        </mxCell>
        <mxCell id="KY7hcWVkb_oylUFNRITa-26" value="변경 Yes?" style="text;html=1;strokeColor=none;fillColor=none;align=center;verticalAlign=middle;whiteSpace=wrap;rounded=0;" parent="KY7hcWVkb_oylUFNRITa-1" vertex="1">
          <mxGeometry x="90" y="520" width="60" height="30" as="geometry" />
        </mxCell>
        <mxCell id="KY7hcWVkb_oylUFNRITa-28" value="&lt;span&gt;가장 마지막 견적 &lt;br&gt;불러오기?&lt;br&gt;&lt;br&gt;Product/ 가격/ 계약기간&lt;br&gt;&lt;/span&gt;" style="ellipse;whiteSpace=wrap;html=1;fillColor=#d5e8d4;strokeColor=#82b366;" parent="KY7hcWVkb_oylUFNRITa-1" vertex="1">
          <mxGeometry x="-120" y="280" width="180" height="100" as="geometry" />
        </mxCell>
        <mxCell id="KY7hcWVkb_oylUFNRITa-30" style="edgeStyle=orthogonalEdgeStyle;rounded=0;orthogonalLoop=1;jettySize=auto;html=1;exitX=1;exitY=0.5;exitDx=0;exitDy=0;" parent="KY7hcWVkb_oylUFNRITa-1" source="KY7hcWVkb_oylUFNRITa-29" target="KY7hcWVkb_oylUFNRITa-5" edge="1">
          <mxGeometry relative="1" as="geometry" />
        </mxCell>
        <mxCell id="KY7hcWVkb_oylUFNRITa-29" value="Product&lt;br&gt;기준가격 열람 가능" style="ellipse;whiteSpace=wrap;html=1;fillColor=#fff2cc;strokeColor=#d6b656;" parent="KY7hcWVkb_oylUFNRITa-1" vertex="1">
          <mxGeometry x="-120" y="529" width="110" height="61" as="geometry" />
        </mxCell>
        <mxCell id="VFuvFAlaSrYjV7-92XhT-1" style="edgeStyle=orthogonalEdgeStyle;rounded=0;orthogonalLoop=1;jettySize=auto;html=1;exitX=1;exitY=0.5;exitDx=0;exitDy=0;entryX=0;entryY=0.5;entryDx=0;entryDy=0;" parent="KY7hcWVkb_oylUFNRITa-1" source="VFuvFAlaSrYjV7-92XhT-0" target="KY7hcWVkb_oylUFNRITa-5" edge="1">
          <mxGeometry relative="1" as="geometry" />
        </mxCell>
        <mxCell id="VFuvFAlaSrYjV7-92XhT-0" value="전체 Resource&lt;br&gt;리스트에서 선택 가능" style="ellipse;whiteSpace=wrap;html=1;fillColor=#fff2cc;strokeColor=#d6b656;" parent="KY7hcWVkb_oylUFNRITa-1" vertex="1">
          <mxGeometry x="-130" y="610" width="120" height="70" as="geometry" />
        </mxCell>
        <mxCell id="VFuvFAlaSrYjV7-92XhT-6" value="if 실패시?" style="ellipse;whiteSpace=wrap;html=1;fillColor=#d5e8d4;strokeColor=#82b366;" parent="KY7hcWVkb_oylUFNRITa-1" vertex="1">
          <mxGeometry x="1005" y="535" width="80" height="60" as="geometry" />
        </mxCell>
        <mxCell id="VFuvFAlaSrYjV7-92XhT-13" style="edgeStyle=orthogonalEdgeStyle;rounded=0;orthogonalLoop=1;jettySize=auto;html=1;exitX=0;exitY=1;exitDx=0;exitDy=0;entryX=1;entryY=0.5;entryDx=0;entryDy=0;" parent="KY7hcWVkb_oylUFNRITa-1" source="VFuvFAlaSrYjV7-92XhT-11" target="KY7hcWVkb_oylUFNRITa-18" edge="1">
          <mxGeometry relative="1" as="geometry">
            <Array as="points">
              <mxPoint x="490" y="330" />
              <mxPoint x="490" y="350" />
            </Array>
          </mxGeometry>
        </mxCell>
        <mxCell id="VFuvFAlaSrYjV7-92XhT-11" value="Product&lt;br&gt;기준가격 열람 가능" style="ellipse;whiteSpace=wrap;html=1;fillColor=#fff2cc;strokeColor=#d6b656;" parent="KY7hcWVkb_oylUFNRITa-1" vertex="1">
          <mxGeometry x="495" y="290" width="125" height="60" as="geometry" />
        </mxCell>
        <mxCell id="VFuvFAlaSrYjV7-92XhT-14" style="edgeStyle=orthogonalEdgeStyle;rounded=0;orthogonalLoop=1;jettySize=auto;html=1;exitX=0;exitY=0;exitDx=0;exitDy=0;" parent="KY7hcWVkb_oylUFNRITa-1" source="VFuvFAlaSrYjV7-92XhT-12" target="KY7hcWVkb_oylUFNRITa-18" edge="1">
          <mxGeometry relative="1" as="geometry">
            <Array as="points">
              <mxPoint x="490" y="387" />
              <mxPoint x="490" y="350" />
            </Array>
          </mxGeometry>
        </mxCell>
        <mxCell id="VFuvFAlaSrYjV7-92XhT-12" value="전체 Resource&lt;br&gt;리스트에서 선택 가능" style="ellipse;whiteSpace=wrap;html=1;fillColor=#fff2cc;strokeColor=#d6b656;" parent="KY7hcWVkb_oylUFNRITa-1" vertex="1">
          <mxGeometry x="495" y="370" width="139" height="47" as="geometry" />
        </mxCell>
        <mxCell id="DUfzWWpAgFExAqKAmbWk-0" value="Lead 발굴 및 등록" style="rounded=1;whiteSpace=wrap;html=1;" vertex="1" parent="KY7hcWVkb_oylUFNRITa-1">
          <mxGeometry x="88" y="-359" width="120" height="60" as="geometry" />
        </mxCell>
        <mxCell id="DUfzWWpAgFExAqKAmbWk-2" value="Oppty 전환?" style="rhombus;whiteSpace=wrap;html=1;" vertex="1" parent="KY7hcWVkb_oylUFNRITa-1">
          <mxGeometry x="82.5" y="-230" width="133" height="80" as="geometry" />
        </mxCell>
        <mxCell id="DUfzWWpAgFExAqKAmbWk-3" value="Oppty 등록" style="rounded=1;whiteSpace=wrap;html=1;" vertex="1" parent="KY7hcWVkb_oylUFNRITa-1">
          <mxGeometry x="90" y="-81" width="120" height="60" as="geometry" />
        </mxCell>
        <mxCell id="DUfzWWpAgFExAqKAmbWk-4" value="Status: Prospect" style="ellipse;whiteSpace=wrap;html=1;fillColor=#dae8fc;strokeColor=#6c8ebf;" vertex="1" parent="KY7hcWVkb_oylUFNRITa-1">
          <mxGeometry x="300" y="-78" width="110" height="50" as="geometry" />
        </mxCell>
        <mxCell id="DUfzWWpAgFExAqKAmbWk-5" value="견적 논의 진행" style="rounded=1;whiteSpace=wrap;html=1;" vertex="1" parent="KY7hcWVkb_oylUFNRITa-1">
          <mxGeometry x="90" y="49" width="120" height="60" as="geometry" />
        </mxCell>
        <mxCell id="DUfzWWpAgFExAqKAmbWk-6" value="Status: Negotiation" style="ellipse;whiteSpace=wrap;html=1;fillColor=#dae8fc;strokeColor=#6c8ebf;" vertex="1" parent="KY7hcWVkb_oylUFNRITa-1">
          <mxGeometry x="300" y="52" width="110" height="50" as="geometry" />
        </mxCell>
        <mxCell id="DUfzWWpAgFExAqKAmbWk-7" value="발송 성공/실패 여부" style="ellipse;whiteSpace=wrap;html=1;fillColor=#fff2cc;strokeColor=#d6b656;" vertex="1" parent="KY7hcWVkb_oylUFNRITa-1">
          <mxGeometry x="870" y="590" width="160" height="80" as="geometry" />
        </mxCell>
        <mxCell id="DUfzWWpAgFExAqKAmbWk-8" value="계약완료" style="rounded=1;whiteSpace=wrap;html=1;" vertex="1" parent="KY7hcWVkb_oylUFNRITa-1">
          <mxGeometry x="1000" y="710" width="120" height="60" as="geometry" />
        </mxCell>
        <mxCell id="DUfzWWpAgFExAqKAmbWk-9" value="Status: Contracted" style="ellipse;whiteSpace=wrap;html=1;fillColor=#dae8fc;strokeColor=#6c8ebf;" vertex="1" parent="KY7hcWVkb_oylUFNRITa-1">
          <mxGeometry x="1005" y="820" width="110" height="50" as="geometry" />
        </mxCell>
        <mxCell id="DUfzWWpAgFExAqKAmbWk-10" value="" style="endArrow=classic;html=1;rounded=0;entryX=0.5;entryY=0;entryDx=0;entryDy=0;exitX=0.5;exitY=1;exitDx=0;exitDy=0;" edge="1" parent="KY7hcWVkb_oylUFNRITa-1">
          <mxGeometry width="50" height="50" relative="1" as="geometry">
            <mxPoint x="150.13" y="110" as="sourcePoint" />
            <mxPoint x="150.13" y="180" as="targetPoint" />
          </mxGeometry>
        </mxCell>
        <mxCell id="DUfzWWpAgFExAqKAmbWk-11" value="" style="endArrow=classic;html=1;rounded=0;entryX=0.5;entryY=0;entryDx=0;entryDy=0;exitX=0.5;exitY=1;exitDx=0;exitDy=0;" edge="1" parent="KY7hcWVkb_oylUFNRITa-1">
          <mxGeometry width="50" height="50" relative="1" as="geometry">
            <mxPoint x="149.1300000000001" y="-21" as="sourcePoint" />
            <mxPoint x="149.1300000000001" y="49" as="targetPoint" />
          </mxGeometry>
        </mxCell>
        <mxCell id="DUfzWWpAgFExAqKAmbWk-12" value="" style="endArrow=classic;html=1;rounded=0;entryX=0.5;entryY=0;entryDx=0;entryDy=0;exitX=0.5;exitY=1;exitDx=0;exitDy=0;" edge="1" parent="KY7hcWVkb_oylUFNRITa-1">
          <mxGeometry width="50" height="50" relative="1" as="geometry">
            <mxPoint x="149.1300000000001" y="-151" as="sourcePoint" />
            <mxPoint x="149.1300000000001" y="-81.00000000000023" as="targetPoint" />
          </mxGeometry>
        </mxCell>
        <mxCell id="DUfzWWpAgFExAqKAmbWk-13" value="" style="endArrow=classic;html=1;rounded=0;entryX=0.5;entryY=0;entryDx=0;entryDy=0;exitX=0.5;exitY=1;exitDx=0;exitDy=0;" edge="1" parent="KY7hcWVkb_oylUFNRITa-1">
          <mxGeometry width="50" height="50" relative="1" as="geometry">
            <mxPoint x="149.0000000000001" y="-299" as="sourcePoint" />
            <mxPoint x="149.0000000000001" y="-229.00000000000023" as="targetPoint" />
          </mxGeometry>
        </mxCell>
        <mxCell id="DUfzWWpAgFExAqKAmbWk-14" value="Yes" style="text;html=1;strokeColor=none;fillColor=none;align=center;verticalAlign=middle;whiteSpace=wrap;rounded=0;" vertex="1" parent="KY7hcWVkb_oylUFNRITa-1">
          <mxGeometry x="100" y="-135" width="60" height="35" as="geometry" />
        </mxCell>
        <mxCell id="DUfzWWpAgFExAqKAmbWk-15" value="" style="endArrow=classic;html=1;rounded=0;entryX=0;entryY=0.5;entryDx=0;entryDy=0;" edge="1" parent="KY7hcWVkb_oylUFNRITa-1">
          <mxGeometry width="50" height="50" relative="1" as="geometry">
            <mxPoint x="215.5" y="-190.50000000000023" as="sourcePoint" />
            <mxPoint x="325.5" y="-190" as="targetPoint" />
          </mxGeometry>
        </mxCell>
        <mxCell id="DUfzWWpAgFExAqKAmbWk-16" value="No" style="text;html=1;strokeColor=none;fillColor=none;align=center;verticalAlign=middle;whiteSpace=wrap;rounded=0;" vertex="1" parent="KY7hcWVkb_oylUFNRITa-1">
          <mxGeometry x="235.5" y="-212" width="60" height="30" as="geometry" />
        </mxCell>
        <mxCell id="DUfzWWpAgFExAqKAmbWk-17" value="Lead 유지" style="rounded=1;whiteSpace=wrap;html=1;" vertex="1" parent="KY7hcWVkb_oylUFNRITa-1">
          <mxGeometry x="325" y="-220" width="120" height="60" as="geometry" />
        </mxCell>
        <mxCell id="DUfzWWpAgFExAqKAmbWk-18" value="" style="endArrow=classic;html=1;rounded=0;entryX=0.5;entryY=0;entryDx=0;entryDy=0;exitX=0.5;exitY=1;exitDx=0;exitDy=0;" edge="1" parent="KY7hcWVkb_oylUFNRITa-1">
          <mxGeometry width="50" height="50" relative="1" as="geometry">
            <mxPoint x="950" y="670" as="sourcePoint" />
            <mxPoint x="950" y="740" as="targetPoint" />
          </mxGeometry>
        </mxCell>
        <mxCell id="DUfzWWpAgFExAqKAmbWk-32" value="Oppty record detail" style="rounded=0;whiteSpace=wrap;html=1;labelBackgroundColor=none;fillColor=#000000;fontColor=#FFFFFF;" vertex="1" parent="KY7hcWVkb_oylUFNRITa-1">
          <mxGeometry x="-50" y="10" width="120" height="21" as="geometry" />
        </mxCell>
        <mxCell id="DUfzWWpAgFExAqKAmbWk-38" value="Add Product/Rsc" style="rounded=0;whiteSpace=wrap;html=1;labelBackgroundColor=none;fillColor=#000000;fontColor=#FFFFFF;strokeColor=none;" vertex="1" parent="KY7hcWVkb_oylUFNRITa-1">
          <mxGeometry x="640" y="257.5" width="120" height="21" as="geometry" />
        </mxCell>
        <mxCell id="DUfzWWpAgFExAqKAmbWk-39" value="Quote detail" style="rounded=0;whiteSpace=wrap;html=1;labelBackgroundColor=none;fillColor=#000000;fontColor=#FFFFFF;strokeColor=#FFFFFF;" vertex="1" parent="KY7hcWVkb_oylUFNRITa-1">
          <mxGeometry x="225" y="258.5" width="120" height="21" as="geometry" />
        </mxCell>
        <mxCell id="DUfzWWpAgFExAqKAmbWk-40" value="How to deal with Resource?" style="ellipse;whiteSpace=wrap;html=1;fillColor=#e1d5e7;strokeColor=#9673a6;" vertex="1" parent="KY7hcWVkb_oylUFNRITa-1">
          <mxGeometry x="790" y="310" width="182" height="60" as="geometry" />
        </mxCell>
        <mxCell id="DUfzWWpAgFExAqKAmbWk-41" value="Edit Product/Rsc" style="rounded=0;whiteSpace=wrap;html=1;labelBackgroundColor=none;fillColor=#000000;fontColor=#FFFFFF;strokeColor=#FFFFFF;" vertex="1" parent="KY7hcWVkb_oylUFNRITa-1">
          <mxGeometry x="640" y="236.5" width="120" height="21" as="geometry" />
        </mxCell>
        <mxCell id="DUfzWWpAgFExAqKAmbWk-42" value="Edit Each" style="rounded=0;whiteSpace=wrap;html=1;labelBackgroundColor=none;fillColor=#000000;fontColor=#FFFFFF;strokeColor=#FFFFFF;" vertex="1" parent="KY7hcWVkb_oylUFNRITa-1">
          <mxGeometry x="640" y="215.5" width="120" height="21" as="geometry" />
        </mxCell>
        <mxCell id="DUfzWWpAgFExAqKAmbWk-45" value="Product 등록 및 관리" style="rounded=1;whiteSpace=wrap;html=1;" vertex="1" parent="KY7hcWVkb_oylUFNRITa-1">
          <mxGeometry x="1128" y="40" width="150" height="60" as="geometry" />
        </mxCell>
        <mxCell id="DUfzWWpAgFExAqKAmbWk-50" value="어떤 형태로 불러올건지" style="ellipse;whiteSpace=wrap;html=1;fillColor=#e1d5e7;strokeColor=#9673a6;" vertex="1" parent="KY7hcWVkb_oylUFNRITa-1">
          <mxGeometry x="-160" y="218.5" width="140" height="51.5" as="geometry" />
        </mxCell>
        <mxCell id="DUfzWWpAgFExAqKAmbWk-53" value="Contract Detail" style="rounded=0;whiteSpace=wrap;html=1;labelBackgroundColor=none;fillColor=#000000;fontColor=#FFFFFF;strokeColor=#FFFFFF;" vertex="1" parent="KY7hcWVkb_oylUFNRITa-1">
          <mxGeometry x="1141" y="649" width="120" height="21" as="geometry" />
        </mxCell>
        <mxCell id="DUfzWWpAgFExAqKAmbWk-54" value="Contract List view" style="rounded=0;whiteSpace=wrap;html=1;labelBackgroundColor=none;fillColor=#000000;fontColor=#FFFFFF;strokeColor=#FFFFFF;" vertex="1" parent="KY7hcWVkb_oylUFNRITa-1">
          <mxGeometry x="1141" y="628" width="120" height="21" as="geometry" />
        </mxCell>
        <mxCell id="DUfzWWpAgFExAqKAmbWk-57" value="Lead List view" style="rounded=0;whiteSpace=wrap;html=1;labelBackgroundColor=none;fillColor=#000000;fontColor=#FFFFFF;strokeColor=#FFFFFF;" vertex="1" parent="KY7hcWVkb_oylUFNRITa-1">
          <mxGeometry x="-52" y="-390" width="120" height="21" as="geometry" />
        </mxCell>
        <mxCell id="DUfzWWpAgFExAqKAmbWk-58" value="Lead Detail" style="rounded=0;whiteSpace=wrap;html=1;labelBackgroundColor=none;fillColor=#000000;fontColor=#FFFFFF;strokeColor=#FFFFFF;" vertex="1" parent="KY7hcWVkb_oylUFNRITa-1">
          <mxGeometry x="-52" y="-411" width="120" height="21" as="geometry" />
        </mxCell>
        <mxCell id="DUfzWWpAgFExAqKAmbWk-59" value="New Lead" style="rounded=0;whiteSpace=wrap;html=1;labelBackgroundColor=none;fillColor=#000000;fontColor=#FFFFFF;strokeColor=#FFFFFF;" vertex="1" parent="KY7hcWVkb_oylUFNRITa-1">
          <mxGeometry x="-52" y="-432" width="120" height="21" as="geometry" />
        </mxCell>
      </root>
    </mxGraphModel>
  </diagram>
  <diagram name="견적서_process v0.1" id="eVIoyC8FeMh8dcgA6oSQ">
    <mxGraphModel dx="2044" dy="765" grid="1" gridSize="10" guides="1" tooltips="1" connect="1" arrows="1" fold="1" page="1" pageScale="1" pageWidth="850" pageHeight="1100" math="0" shadow="0">
      <root>
        <mxCell id="_Vlrz_AQ8nTeMRX02rPs-0" />
        <mxCell id="_Vlrz_AQ8nTeMRX02rPs-1" parent="_Vlrz_AQ8nTeMRX02rPs-0" />
        <mxCell id="_Vlrz_AQ8nTeMRX02rPs-2" value="기존 계약 존재?" style="rhombus;whiteSpace=wrap;html=1;" vertex="1" parent="_Vlrz_AQ8nTeMRX02rPs-1">
          <mxGeometry x="90" y="180" width="120" height="60" as="geometry" />
        </mxCell>
        <mxCell id="_Vlrz_AQ8nTeMRX02rPs-3" value="기존 계약/견적서 &lt;br&gt;불러오기" style="rounded=1;whiteSpace=wrap;html=1;" vertex="1" parent="_Vlrz_AQ8nTeMRX02rPs-1">
          <mxGeometry x="90" y="310" width="120" height="60" as="geometry" />
        </mxCell>
        <mxCell id="_Vlrz_AQ8nTeMRX02rPs-4" value="제안할 내용과 비교" style="rhombus;whiteSpace=wrap;html=1;" vertex="1" parent="_Vlrz_AQ8nTeMRX02rPs-1">
          <mxGeometry x="90" y="440" width="120" height="60" as="geometry" />
        </mxCell>
        <mxCell id="_Vlrz_AQ8nTeMRX02rPs-5" value="변동내용 수정:&lt;br&gt;1) 기간 &lt;br&gt;2) Product/Resource&lt;br&gt;3) 가격" style="rounded=1;whiteSpace=wrap;html=1;" vertex="1" parent="_Vlrz_AQ8nTeMRX02rPs-1">
          <mxGeometry x="75" y="570" width="150" height="80" as="geometry" />
        </mxCell>
        <mxCell id="_Vlrz_AQ8nTeMRX02rPs-6" value="최종 가격 계산" style="rounded=1;whiteSpace=wrap;html=1;" vertex="1" parent="_Vlrz_AQ8nTeMRX02rPs-1">
          <mxGeometry x="320" y="710" width="120" height="60" as="geometry" />
        </mxCell>
        <mxCell id="_Vlrz_AQ8nTeMRX02rPs-7" value="견적서 받을 담당자 지정" style="rounded=1;whiteSpace=wrap;html=1;" vertex="1" parent="_Vlrz_AQ8nTeMRX02rPs-1">
          <mxGeometry x="540" y="710" width="140" height="60" as="geometry" />
        </mxCell>
        <mxCell id="_Vlrz_AQ8nTeMRX02rPs-8" style="edgeStyle=orthogonalEdgeStyle;rounded=0;orthogonalLoop=1;jettySize=auto;html=1;exitX=1;exitY=0.5;exitDx=0;exitDy=0;" edge="1" parent="_Vlrz_AQ8nTeMRX02rPs-1" source="_Vlrz_AQ8nTeMRX02rPs-9" target="_Vlrz_AQ8nTeMRX02rPs-33">
          <mxGeometry relative="1" as="geometry" />
        </mxCell>
        <mxCell id="_Vlrz_AQ8nTeMRX02rPs-9" value="견적서 발송" style="rounded=1;whiteSpace=wrap;html=1;" vertex="1" parent="_Vlrz_AQ8nTeMRX02rPs-1">
          <mxGeometry x="780" y="710" width="120" height="60" as="geometry" />
        </mxCell>
        <mxCell id="_Vlrz_AQ8nTeMRX02rPs-10" value="" style="endArrow=classic;html=1;rounded=0;entryX=0.5;entryY=0;entryDx=0;entryDy=0;exitX=0.5;exitY=1;exitDx=0;exitDy=0;" edge="1" parent="_Vlrz_AQ8nTeMRX02rPs-1" source="_Vlrz_AQ8nTeMRX02rPs-2" target="_Vlrz_AQ8nTeMRX02rPs-3">
          <mxGeometry width="50" height="50" relative="1" as="geometry">
            <mxPoint x="200" y="270" as="sourcePoint" />
            <mxPoint x="250" y="220" as="targetPoint" />
          </mxGeometry>
        </mxCell>
        <mxCell id="_Vlrz_AQ8nTeMRX02rPs-11" value="" style="endArrow=classic;html=1;rounded=0;entryX=0.5;entryY=0;entryDx=0;entryDy=0;exitX=0.5;exitY=1;exitDx=0;exitDy=0;" edge="1" parent="_Vlrz_AQ8nTeMRX02rPs-1">
          <mxGeometry width="50" height="50" relative="1" as="geometry">
            <mxPoint x="149.5" y="370" as="sourcePoint" />
            <mxPoint x="149.5" y="440" as="targetPoint" />
          </mxGeometry>
        </mxCell>
        <mxCell id="_Vlrz_AQ8nTeMRX02rPs-12" value="" style="endArrow=classic;html=1;rounded=0;entryX=0.5;entryY=0;entryDx=0;entryDy=0;exitX=0.5;exitY=1;exitDx=0;exitDy=0;" edge="1" parent="_Vlrz_AQ8nTeMRX02rPs-1">
          <mxGeometry width="50" height="50" relative="1" as="geometry">
            <mxPoint x="149.5" y="500" as="sourcePoint" />
            <mxPoint x="149.5" y="570" as="targetPoint" />
          </mxGeometry>
        </mxCell>
        <mxCell id="_Vlrz_AQ8nTeMRX02rPs-13" value="" style="endArrow=classic;html=1;rounded=0;exitX=0.5;exitY=1;exitDx=0;exitDy=0;entryX=0;entryY=0.5;entryDx=0;entryDy=0;" edge="1" parent="_Vlrz_AQ8nTeMRX02rPs-1" target="_Vlrz_AQ8nTeMRX02rPs-6">
          <mxGeometry width="50" height="50" relative="1" as="geometry">
            <mxPoint x="149.5" y="650" as="sourcePoint" />
            <mxPoint x="150" y="710" as="targetPoint" />
            <Array as="points">
              <mxPoint x="150" y="740" />
            </Array>
          </mxGeometry>
        </mxCell>
        <mxCell id="_Vlrz_AQ8nTeMRX02rPs-14" value="" style="endArrow=classic;html=1;rounded=0;" edge="1" parent="_Vlrz_AQ8nTeMRX02rPs-1">
          <mxGeometry width="50" height="50" relative="1" as="geometry">
            <mxPoint x="210" y="470" as="sourcePoint" />
            <mxPoint x="380" y="710" as="targetPoint" />
            <Array as="points">
              <mxPoint x="380" y="470" />
            </Array>
          </mxGeometry>
        </mxCell>
        <mxCell id="_Vlrz_AQ8nTeMRX02rPs-15" value="" style="endArrow=classic;html=1;rounded=0;entryX=0;entryY=0.5;entryDx=0;entryDy=0;" edge="1" parent="_Vlrz_AQ8nTeMRX02rPs-1" target="_Vlrz_AQ8nTeMRX02rPs-7">
          <mxGeometry width="50" height="50" relative="1" as="geometry">
            <mxPoint x="440" y="740" as="sourcePoint" />
            <mxPoint x="490" y="690" as="targetPoint" />
          </mxGeometry>
        </mxCell>
        <mxCell id="_Vlrz_AQ8nTeMRX02rPs-16" value="" style="endArrow=classic;html=1;rounded=0;entryX=0;entryY=0.5;entryDx=0;entryDy=0;" edge="1" parent="_Vlrz_AQ8nTeMRX02rPs-1">
          <mxGeometry width="50" height="50" relative="1" as="geometry">
            <mxPoint x="680" y="739.5" as="sourcePoint" />
            <mxPoint x="780" y="739.5" as="targetPoint" />
          </mxGeometry>
        </mxCell>
        <mxCell id="_Vlrz_AQ8nTeMRX02rPs-17" value="" style="endArrow=classic;html=1;rounded=0;entryX=0;entryY=0.5;entryDx=0;entryDy=0;" edge="1" parent="_Vlrz_AQ8nTeMRX02rPs-1" target="_Vlrz_AQ8nTeMRX02rPs-18">
          <mxGeometry width="50" height="50" relative="1" as="geometry">
            <mxPoint x="210" y="209.5" as="sourcePoint" />
            <mxPoint x="310" y="209.5" as="targetPoint" />
          </mxGeometry>
        </mxCell>
        <mxCell id="_Vlrz_AQ8nTeMRX02rPs-18" value="새 견적서 작성" style="rounded=1;whiteSpace=wrap;html=1;" vertex="1" parent="_Vlrz_AQ8nTeMRX02rPs-1">
          <mxGeometry x="320" y="180" width="120" height="60" as="geometry" />
        </mxCell>
        <mxCell id="_Vlrz_AQ8nTeMRX02rPs-19" value="" style="endArrow=classic;html=1;rounded=0;entryX=0.5;entryY=0;entryDx=0;entryDy=0;exitX=0.5;exitY=1;exitDx=0;exitDy=0;" edge="1" parent="_Vlrz_AQ8nTeMRX02rPs-1">
          <mxGeometry width="50" height="50" relative="1" as="geometry">
            <mxPoint x="379.5" y="240" as="sourcePoint" />
            <mxPoint x="379.5" y="310" as="targetPoint" />
          </mxGeometry>
        </mxCell>
        <mxCell id="_Vlrz_AQ8nTeMRX02rPs-20" value="" style="endArrow=classic;html=1;rounded=0;exitX=0.5;exitY=1;exitDx=0;exitDy=0;entryX=0.5;entryY=0;entryDx=0;entryDy=0;" edge="1" parent="_Vlrz_AQ8nTeMRX02rPs-1" target="_Vlrz_AQ8nTeMRX02rPs-6">
          <mxGeometry width="50" height="50" relative="1" as="geometry">
            <mxPoint x="379.5" y="240" as="sourcePoint" />
            <mxPoint x="380" y="700" as="targetPoint" />
          </mxGeometry>
        </mxCell>
        <mxCell id="_Vlrz_AQ8nTeMRX02rPs-21" value="1) 기간&lt;br&gt;2) Product / Resource&lt;br&gt;3) 가격&lt;br&gt;입력" style="rounded=1;whiteSpace=wrap;html=1;" vertex="1" parent="_Vlrz_AQ8nTeMRX02rPs-1">
          <mxGeometry x="310" y="310" width="140" height="80" as="geometry" />
        </mxCell>
        <mxCell id="_Vlrz_AQ8nTeMRX02rPs-22" value="No" style="text;html=1;strokeColor=none;fillColor=none;align=center;verticalAlign=middle;whiteSpace=wrap;rounded=0;" vertex="1" parent="_Vlrz_AQ8nTeMRX02rPs-1">
          <mxGeometry x="230" y="188" width="60" height="30" as="geometry" />
        </mxCell>
        <mxCell id="_Vlrz_AQ8nTeMRX02rPs-23" value="Yes" style="text;html=1;strokeColor=none;fillColor=none;align=center;verticalAlign=middle;whiteSpace=wrap;rounded=0;" vertex="1" parent="_Vlrz_AQ8nTeMRX02rPs-1">
          <mxGeometry x="107" y="260" width="60" height="30" as="geometry" />
        </mxCell>
        <mxCell id="_Vlrz_AQ8nTeMRX02rPs-24" value="변경 No?" style="text;html=1;strokeColor=none;fillColor=none;align=center;verticalAlign=middle;whiteSpace=wrap;rounded=0;" vertex="1" parent="_Vlrz_AQ8nTeMRX02rPs-1">
          <mxGeometry x="260" y="446" width="60" height="30" as="geometry" />
        </mxCell>
        <mxCell id="_Vlrz_AQ8nTeMRX02rPs-25" value="변경 Yes?" style="text;html=1;strokeColor=none;fillColor=none;align=center;verticalAlign=middle;whiteSpace=wrap;rounded=0;" vertex="1" parent="_Vlrz_AQ8nTeMRX02rPs-1">
          <mxGeometry x="90" y="520" width="60" height="30" as="geometry" />
        </mxCell>
        <mxCell id="_Vlrz_AQ8nTeMRX02rPs-26" value="&lt;span&gt;각 Product별&lt;/span&gt;&lt;br&gt;&lt;span&gt;가장 마지막 견적 &lt;br&gt;불러오기?&lt;br&gt;&lt;br&gt;Product/ 가격/ 계약기간&lt;br&gt;&lt;/span&gt;" style="ellipse;whiteSpace=wrap;html=1;fillColor=#d5e8d4;strokeColor=#82b366;" vertex="1" parent="_Vlrz_AQ8nTeMRX02rPs-1">
          <mxGeometry x="-120" y="280" width="180" height="100" as="geometry" />
        </mxCell>
        <mxCell id="_Vlrz_AQ8nTeMRX02rPs-27" style="edgeStyle=orthogonalEdgeStyle;rounded=0;orthogonalLoop=1;jettySize=auto;html=1;exitX=1;exitY=0.5;exitDx=0;exitDy=0;" edge="1" parent="_Vlrz_AQ8nTeMRX02rPs-1" source="_Vlrz_AQ8nTeMRX02rPs-28" target="_Vlrz_AQ8nTeMRX02rPs-5">
          <mxGeometry relative="1" as="geometry" />
        </mxCell>
        <mxCell id="_Vlrz_AQ8nTeMRX02rPs-28" value="Product&lt;br&gt;기준가격 열람 가능" style="ellipse;whiteSpace=wrap;html=1;fillColor=#fff2cc;strokeColor=#d6b656;" vertex="1" parent="_Vlrz_AQ8nTeMRX02rPs-1">
          <mxGeometry x="-170" y="491" width="160" height="80" as="geometry" />
        </mxCell>
        <mxCell id="_Vlrz_AQ8nTeMRX02rPs-29" style="edgeStyle=orthogonalEdgeStyle;rounded=0;orthogonalLoop=1;jettySize=auto;html=1;exitX=1;exitY=0.5;exitDx=0;exitDy=0;entryX=0;entryY=0.5;entryDx=0;entryDy=0;" edge="1" parent="_Vlrz_AQ8nTeMRX02rPs-1" source="_Vlrz_AQ8nTeMRX02rPs-30" target="_Vlrz_AQ8nTeMRX02rPs-5">
          <mxGeometry relative="1" as="geometry" />
        </mxCell>
        <mxCell id="_Vlrz_AQ8nTeMRX02rPs-30" value="전체 Resource&lt;br&gt;리스트에서 선택 가능" style="ellipse;whiteSpace=wrap;html=1;fillColor=#fff2cc;strokeColor=#d6b656;" vertex="1" parent="_Vlrz_AQ8nTeMRX02rPs-1">
          <mxGeometry x="-180" y="704" width="170" height="80" as="geometry" />
        </mxCell>
        <mxCell id="_Vlrz_AQ8nTeMRX02rPs-31" style="edgeStyle=orthogonalEdgeStyle;rounded=0;orthogonalLoop=1;jettySize=auto;html=1;" edge="1" parent="_Vlrz_AQ8nTeMRX02rPs-1" source="_Vlrz_AQ8nTeMRX02rPs-32">
          <mxGeometry relative="1" as="geometry">
            <mxPoint x="729" y="740" as="targetPoint" />
          </mxGeometry>
        </mxCell>
        <mxCell id="_Vlrz_AQ8nTeMRX02rPs-32" value="1. 이메일 template&lt;br&gt;2. 발송 이메일 지정" style="ellipse;whiteSpace=wrap;html=1;fillColor=#fff2cc;strokeColor=#d6b656;" vertex="1" parent="_Vlrz_AQ8nTeMRX02rPs-1">
          <mxGeometry x="640" y="800" width="178" height="100" as="geometry" />
        </mxCell>
        <mxCell id="_Vlrz_AQ8nTeMRX02rPs-33" value="발송 성공/실패 여부" style="ellipse;whiteSpace=wrap;html=1;fillColor=#fff2cc;strokeColor=#d6b656;" vertex="1" parent="_Vlrz_AQ8nTeMRX02rPs-1">
          <mxGeometry x="1000" y="700" width="160" height="80" as="geometry" />
        </mxCell>
        <mxCell id="_Vlrz_AQ8nTeMRX02rPs-34" value="if 실패시?" style="ellipse;whiteSpace=wrap;html=1;fillColor=#d5e8d4;strokeColor=#82b366;" vertex="1" parent="_Vlrz_AQ8nTeMRX02rPs-1">
          <mxGeometry x="1120" y="630" width="80" height="60" as="geometry" />
        </mxCell>
        <mxCell id="_Vlrz_AQ8nTeMRX02rPs-35" value="&lt;span&gt;계약 종료 날짜에 대한 logic&lt;br&gt;&lt;/span&gt;" style="ellipse;whiteSpace=wrap;html=1;fillColor=#d5e8d4;strokeColor=#82b366;" vertex="1" parent="_Vlrz_AQ8nTeMRX02rPs-1">
          <mxGeometry x="-170" y="600" width="160" height="70" as="geometry" />
        </mxCell>
        <mxCell id="_Vlrz_AQ8nTeMRX02rPs-36" value="&lt;span&gt;계약 종료 날짜에 대한 logic&lt;br&gt;&lt;/span&gt;" style="ellipse;whiteSpace=wrap;html=1;fillColor=#d5e8d4;strokeColor=#82b366;" vertex="1" parent="_Vlrz_AQ8nTeMRX02rPs-1">
          <mxGeometry x="410" y="440" width="160" height="70" as="geometry" />
        </mxCell>
        <mxCell id="_Vlrz_AQ8nTeMRX02rPs-37" style="edgeStyle=orthogonalEdgeStyle;rounded=0;orthogonalLoop=1;jettySize=auto;html=1;exitX=0;exitY=1;exitDx=0;exitDy=0;entryX=1;entryY=0.5;entryDx=0;entryDy=0;" edge="1" parent="_Vlrz_AQ8nTeMRX02rPs-1" source="_Vlrz_AQ8nTeMRX02rPs-38" target="_Vlrz_AQ8nTeMRX02rPs-21">
          <mxGeometry relative="1" as="geometry">
            <Array as="points">
              <mxPoint x="490" y="330" />
              <mxPoint x="490" y="350" />
            </Array>
          </mxGeometry>
        </mxCell>
        <mxCell id="_Vlrz_AQ8nTeMRX02rPs-38" value="Product&lt;br&gt;기준가격 열람 가능" style="ellipse;whiteSpace=wrap;html=1;fillColor=#fff2cc;strokeColor=#d6b656;" vertex="1" parent="_Vlrz_AQ8nTeMRX02rPs-1">
          <mxGeometry x="495" y="270" width="160" height="80" as="geometry" />
        </mxCell>
        <mxCell id="_Vlrz_AQ8nTeMRX02rPs-39" style="edgeStyle=orthogonalEdgeStyle;rounded=0;orthogonalLoop=1;jettySize=auto;html=1;exitX=0;exitY=0;exitDx=0;exitDy=0;" edge="1" parent="_Vlrz_AQ8nTeMRX02rPs-1" source="_Vlrz_AQ8nTeMRX02rPs-40" target="_Vlrz_AQ8nTeMRX02rPs-21">
          <mxGeometry relative="1" as="geometry">
            <Array as="points">
              <mxPoint x="490" y="387" />
              <mxPoint x="490" y="350" />
            </Array>
          </mxGeometry>
        </mxCell>
        <mxCell id="_Vlrz_AQ8nTeMRX02rPs-40" value="전체 Resource&lt;br&gt;리스트에서 선택 가능" style="ellipse;whiteSpace=wrap;html=1;fillColor=#fff2cc;strokeColor=#d6b656;" vertex="1" parent="_Vlrz_AQ8nTeMRX02rPs-1">
          <mxGeometry x="491" y="367" width="170" height="80" as="geometry" />
        </mxCell>
      </root>
    </mxGraphModel>
  </diagram>
</mxfile>
